<svg width="209" height="226" viewBox="0 0 209 226" fill="none" xmlns="http://www.w3.org/2000/svg">
<g opacity="0.2">
<path d="M199.282 101.436C196.72 87.8457 196.028 72.2496 194.646 58.4546C193.263 44.6597 173.864 33.0752 156.742 25.9116C139.62 18.748 126.077 3.64318 100.333 1.59645C74.5896 -0.450284 45.3483 37.7008 41.6474 44.1684C37.9465 50.6361 32.5375 55.5892 15.2936 73.3958C12.8801 75.8708 11.0581 78.8665 9.96595 82.1558C9.6406 83.4111 9.35591 84.6801 9.1119 85.9627C8.78654 87.4363 8.50186 88.91 8.21717 90.4246C6.50906 110.155 18.0185 136.558 22.7361 152.604C29.0399 174.095 25.827 176.756 37.0111 189.978C44.2083 198.964 54.5596 204.826 65.927 206.351C76.9891 207.907 84.3909 218.386 98.7472 222.725C113.104 227.064 121.4 214.784 139.417 204.305C157.433 193.825 183.014 188.709 197.655 166.686C212.296 144.663 201.803 114.985 199.282 101.436ZM193.67 116.213C193.67 117.36 193.67 118.465 193.67 119.57C193.67 122.722 193.06 125.833 192.572 128.862C191.755 133.863 190.544 138.791 188.952 143.599C188.545 144.868 188.139 146.096 187.691 147.324C187.244 148.552 186.796 149.616 186.308 150.762C185.82 151.908 184.804 154.242 183.99 155.92C182.334 159.319 180.474 162.614 178.419 165.785L176.263 168.978C174.636 171.27 172.928 173.44 171.139 175.528C168.429 178.712 165.493 181.695 162.354 184.451C159.234 187.191 155.917 189.694 152.431 191.942C139.174 200.56 123.602 204.858 107.833 204.25C92.0631 203.642 76.8628 198.158 64.3003 188.545C63.8902 188.268 63.4964 187.967 63.1208 187.644C60.7958 185.843 58.5693 183.916 56.4511 181.872C55.5563 181.013 54.6616 180.153 53.8076 179.253L51.9774 177.288C51.042 176.264 50.1473 175.2 49.2526 174.136C47.3818 171.844 45.5923 169.428 43.8842 166.89C42.1225 164.253 40.5068 161.52 39.0446 158.704C38.5972 157.926 38.2312 157.189 37.8652 156.411C37.1331 155.019 36.4824 153.628 35.8724 152.318C35.2623 151.008 34.7336 149.616 34.2049 148.224C32.7863 144.493 31.5911 140.679 30.626 136.803C30.0566 134.593 29.5686 132.342 29.2026 130.09C28.6754 127.192 28.2953 124.268 28.0638 121.33C28.0222 120.854 28.0222 120.374 28.0638 119.897C28.0638 118.533 27.9825 117.169 27.8198 115.804C27.8198 114.658 27.8198 113.471 27.8198 112.325C27.8198 111.178 27.8198 109.009 27.8198 107.412C27.8198 104.547 28.1858 101.763 28.5519 98.9799C28.9179 96.1963 29.3246 93.8631 29.8533 91.3661C30.1786 89.8924 30.504 88.4188 30.87 86.9451C31.4801 84.6937 32.1308 82.4423 32.8628 80.2728C33.9305 77.0385 35.1797 73.8678 36.6044 70.776C42.3666 58.036 51 46.8234 61.8194 38.0283C64.7635 35.5177 67.8902 33.2326 71.1734 31.1922C80.4824 25.5579 90.8836 21.9984 101.675 20.7538C104.698 20.3757 107.74 20.1843 110.785 20.1808C122.837 20.2216 134.709 23.1248 145.436 28.6542C147.848 29.8986 150.196 31.2648 152.472 32.7477C156.713 35.5083 160.701 38.6455 164.388 42.1217C165.12 42.7767 165.811 43.4726 166.502 44.2094C167.845 45.5193 169.187 46.952 170.569 48.3028L171.749 49.6537C172.44 50.4724 173.132 51.332 173.782 52.1916C175.043 53.8699 176.304 55.5892 177.483 57.3494C178.663 59.1096 179.923 61.1972 181.062 63.203C182.201 65.2088 183.218 67.2965 184.194 69.1795C185.17 71.0625 185.983 73.273 186.796 75.115C188.092 78.4115 189.218 81.7725 190.172 85.1849C191.026 88.255 191.717 91.407 192.287 94.5999C192.694 97.015 193.019 99.512 193.263 101.968C193.263 103.728 193.588 105.488 193.629 107.29C193.67 109.091 193.629 110.442 193.629 112.079C193.629 113.716 193.751 114.903 193.67 116.213Z" fill="white"/>
</g>
<g opacity="0.19">
<path d="M181.306 64.7996C174.636 54.0748 169.105 40.8529 163.208 29.4731C157.311 18.0932 136.895 15.8828 119.732 16.374C102.57 16.8652 86.0174 9.37415 62.7952 17.9704C39.5729 26.5667 27.0061 71.1854 25.908 78.4309C24.81 85.6763 21.8411 91.9393 12.6905 114.29C11.4303 117.376 10.8343 120.697 10.9417 124.032C10.9417 125.219 11.2671 126.447 11.4297 127.634C11.5924 128.821 11.8771 130.459 12.1618 131.728C17.2861 149.78 35.9127 167.832 45.2667 180.112C57.7522 196.2 55.8407 199.761 69.6683 206.72C74.3119 209.148 79.3875 210.626 84.6019 211.069C89.8164 211.512 95.0663 210.91 100.048 209.299C110.175 206.188 120.017 212.287 133.845 210.281C147.672 208.275 150.844 194.317 163.005 177.984C175.165 161.651 195.54 146.955 201.112 122.026C206.684 97.0971 187.935 75.5245 181.306 64.7996ZM181.306 79.8636C181.631 80.846 181.957 81.8694 182.241 82.8518C183.085 85.6362 183.778 88.4649 184.315 91.3253C185.285 96.0164 185.856 100.782 186.023 105.571C186.023 106.799 186.023 108.027 186.023 109.255C186.023 110.442 186.023 111.629 186.023 112.775C186.023 114.617 186.023 116.418 185.657 118.219C185.368 121.824 184.851 125.406 184.112 128.944C183.868 130.172 183.583 131.4 183.258 132.587C182.607 135.207 181.875 137.745 180.98 140.283C179.697 144.107 178.162 147.84 176.385 151.458C174.584 155.092 172.532 158.593 170.244 161.938C162.249 173.852 151.204 183.37 138.278 189.487C124.106 196.128 108.159 197.897 92.8905 194.521L91.5891 194.194C88.9869 193.573 86.4207 192.808 83.9026 191.902C82.8452 191.533 81.7878 191.124 80.771 190.674L78.5342 189.691C77.3955 189.2 76.2567 188.627 75.1587 188.054C72.7467 186.833 70.4107 185.466 68.1635 183.96C65.7476 182.398 63.4379 180.675 61.2497 178.803L59.4603 177.329C58.4029 176.387 57.3861 175.446 56.4101 174.463C55.424 173.546 54.4872 172.575 53.6039 171.557C51.1284 168.904 48.8323 166.087 46.7308 163.125C45.5514 161.446 44.4126 159.686 43.3145 157.885C42.2165 156.084 40.671 153.259 39.2476 150.803C39.2476 150.394 38.8409 149.985 38.6782 149.575C38.1495 148.47 37.6615 147.324 37.1735 146.178C36.6854 145.031 36.3601 144.172 35.9534 143.149C35.5467 142.125 34.9366 140.283 34.4486 139.055C33.6352 136.558 32.9438 134.02 32.3338 131.482C31.7238 128.944 31.3171 126.734 30.9917 124.36C30.7477 122.968 30.585 121.535 30.4223 120.266C30.1783 118.056 30.0156 115.886 29.9343 113.676C29.7514 110.472 29.7514 107.26 29.9343 104.056C30.306 98.171 31.2182 92.3334 32.6592 86.6178C34.5572 79.2432 37.3577 72.1344 40.9964 65.4546C45.9204 56.3463 52.4689 48.2286 60.3143 41.5078C63.3172 38.9561 66.5126 36.6432 69.8717 34.5899C72.3525 33.0753 74.9553 31.6835 77.5988 30.4964C87.8957 25.7102 99.1654 23.4248 110.5 23.8241C112.981 23.8241 115.462 24.1516 117.943 24.52C122.483 25.1985 126.95 26.3087 131.282 27.8357L133.845 28.7772C135.444 29.4048 137.03 30.1007 138.603 30.8648L140.026 31.5198L142.629 32.9116C144.297 33.8531 145.964 34.8355 147.55 35.8998C149.136 36.9641 150.926 38.2331 152.593 39.502C154.261 40.771 155.725 42.04 157.23 43.5955C158.734 45.151 160.076 46.2562 161.296 47.689C163.485 50.0332 165.549 52.4928 167.478 55.0572C169.244 57.3979 170.886 59.83 172.399 62.3436C173.538 64.2675 174.636 66.437 175.693 68.3609C176.751 70.2849 177.117 71.2673 177.727 72.7819C178.337 74.2965 178.866 75.4836 179.394 76.8754C179.923 78.2671 180.899 78.7174 181.306 79.8636Z" fill="#FF4D00"/>
</g>
<g opacity="0.26">
<path d="M182.278 163.247C187.565 150.721 195.496 137.745 201.84 125.833C208.185 113.921 198.953 91.6934 189.192 74.5827C179.431 57.4721 176.991 36.5135 157.266 17.6836C137.542 -1.14629 93.5375 9.94699 87.1931 12.6896C80.8487 15.4322 73.8129 15.8416 50.3059 18.5433C47.0521 18.9141 43.9452 20.1114 41.2773 22.0227C40.3419 22.8005 39.4472 23.6191 38.5525 24.4788C37.6578 25.3384 36.4377 26.4436 35.4209 27.467C23.2201 42.1216 18.2585 70.8577 13.2968 86.8631C6.70836 108.231 2.72276 108.231 4.47154 126.242C5.40076 138.331 10.4257 149.733 18.7058 158.54C26.8397 167.136 26.8397 180.44 36.0717 193.457C45.3036 206.474 58.4805 202.176 78.6118 205.737C98.7432 209.299 122.006 222.316 145.594 214.374C169.183 206.433 176.95 175.773 182.278 163.247ZM169.752 171.434L167.8 173.972C165.929 176.346 163.936 178.557 161.903 180.685C158.544 184.12 154.898 187.256 151.003 190.059C149.987 190.796 149.011 191.492 147.953 192.147L145.025 194.03C143.48 194.93 141.934 195.831 140.348 196.609C137.18 198.201 133.904 199.569 130.547 200.702L127.09 201.848C124.568 202.585 122.006 203.199 119.444 203.69C115.524 204.421 111.554 204.845 107.568 204.959C103.559 205.081 99.5471 204.875 95.571 204.345C80.8367 202.347 66.9711 196.171 55.593 186.539C42.08 175.21 32.1206 160.181 26.921 143.271C26.921 142.78 26.6364 142.289 26.4737 141.756C25.6196 138.809 24.8876 135.78 24.2775 132.71C23.9928 131.441 23.7895 130.172 23.5862 128.862C23.3828 127.552 23.3015 126.979 23.1795 126.078C23.0575 125.178 22.8541 123.172 22.7321 121.739C22.447 118.637 22.3248 115.522 22.3661 112.406C22.3692 109.043 22.5457 105.682 22.8948 102.336C22.8948 101.436 22.8948 100.576 23.2201 99.7166C23.2201 98.1611 23.6268 96.6056 23.9115 95.05C24.1962 93.4945 24.4402 92.1027 24.8062 90.6291C25.6566 86.723 26.7708 82.8799 28.1411 79.1265C28.8732 76.9979 29.7272 75.033 30.622 72.8226C31.5167 70.6121 33.0621 67.5829 34.4449 65.045C34.4449 64.6356 34.8922 64.2263 35.1363 63.8169C35.787 62.6708 36.4377 61.5655 37.1291 60.4603C37.8204 59.3551 38.3491 58.5364 38.9999 57.5949C39.6506 56.6534 40.83 54.9751 41.7654 53.747C43.3922 51.5366 45.1409 49.6536 46.9304 47.484C48.7198 45.3145 50.3059 43.9227 52.0954 42.2853C53.1528 41.3029 54.2102 40.3205 55.3083 39.4199C57.0164 37.9872 58.7245 36.6773 60.514 35.3264C67.8154 30.1371 75.9247 26.2082 84.5089 23.701C91.6863 21.6283 99.126 20.6216 106.592 20.7128C110.399 20.8515 114.191 21.2619 117.939 21.9408C124.505 23.0288 130.902 24.9689 136.972 27.7126C140.756 29.429 144.4 31.441 147.872 33.73C150.434 35.4492 152.996 37.2913 155.477 39.338C165.245 47.5298 173.174 57.7149 178.74 69.2203C180.001 71.7992 181.139 74.4599 182.156 77.1616C184.052 82.1639 185.548 87.3108 186.63 92.553C186.833 93.5764 187.036 94.5998 187.199 95.6231C187.524 97.588 187.85 99.7166 188.053 101.6C188.053 102.214 188.053 102.787 188.257 103.401C188.46 104.015 188.257 105.693 188.501 106.798V107.044C188.501 109.254 188.501 111.465 188.501 113.634C188.501 115.804 188.501 118.342 188.216 120.716C187.931 123.09 187.809 125.26 187.443 127.552C187.077 129.844 186.792 131.891 186.304 134.061C185.573 137.531 184.663 140.96 183.58 144.335C182.563 147.364 181.424 150.353 180.163 153.259C179.187 155.47 178.089 157.68 176.95 159.85C176.137 161.364 175.283 162.879 174.348 164.311C173.412 165.744 172.761 166.931 171.867 168.405C170.972 169.878 170.525 170.37 169.752 171.393V171.434Z" fill="#FCFF67"/>
</g>
<path fill-rule="evenodd" clip-rule="evenodd" d="M187.284 112.57C187.561 137.408 178.361 161.407 161.581 179.621C154.168 187.565 145.212 193.89 135.268 198.205C126.276 202.104 116.591 204.124 106.8 204.141C103.261 204.151 99.7258 203.891 96.2257 203.363C93.0626 202.909 89.9364 202.225 86.8717 201.316C79.658 199.197 72.8028 195.995 66.537 191.819C62.4904 189.156 58.6926 186.128 55.1903 182.773C46.6207 174.647 39.7128 164.913 34.8556 154.118C31.6598 146.978 29.3382 139.473 27.9418 131.768C27.9418 131.768 27.9418 131.768 27.9418 131.768C26.7253 125.441 26.0855 119.015 26.0303 112.57C25.9481 95.3801 30.2767 78.4602 38.5972 63.4483C41.9375 57.5726 45.906 52.082 50.432 47.0745C57.4545 38.9975 66.0894 32.5008 75.7737 28.008C85.458 23.5151 95.9743 21.1269 106.637 20.9991C108.427 20.9991 110.175 20.9991 111.883 20.9991C120.885 21.6559 129.686 24.0023 137.83 27.9171C139.254 28.572 140.637 29.3088 141.897 30.0457C147.793 33.349 153.258 37.3779 158.165 42.0395C159.833 43.595 161.419 45.2733 162.964 46.9926L164.632 48.8756C179.477 66.7146 187.51 89.3008 187.284 112.57V112.57Z" fill="url(#paint0_radial)"/>
<path style="mix-blend-mode:multiply" opacity="0.4" fill-rule="evenodd" clip-rule="evenodd" d="M74.2512 58.7259C91.1407 48.5781 111.251 45.2411 130.451 49.4004C138.867 51.3182 146.797 54.9167 153.762 59.9793C161.527 65.6722 167.725 73.2223 171.79 81.9395C175.856 90.6567 177.658 100.263 177.034 109.88C175.436 108.365 173.743 107.094 172.084 105.473C168.131 102.035 164.452 98.2953 161.081 94.2886C159.801 92.5874 157.345 90.2548 154.795 91.6524C154.124 92.0452 153.912 92.1693 153.359 92.1159C152.806 92.0625 152.593 91.2922 152.143 90.8483C151.086 89.7708 149.006 89.6211 147.453 89.3989C145.034 89.0727 142.637 88.603 140.275 87.9921C135.597 86.7245 131.857 83.4941 126.569 84.1848C125.195 84.467 123.853 84.8893 122.564 85.4448C121.833 85.666 121.065 85.7372 120.307 85.6541C119.549 85.5711 118.817 85.3356 118.155 84.9619C116.647 83.9476 115.027 83.1092 113.326 82.4633C111.458 82.1321 109.533 82.2702 107.727 82.865C104.861 83.8767 102.072 85.0988 99.385 86.5213C98.0778 87.2862 96.483 87.5598 95.1199 88.3103C93.9147 89.0441 92.8672 90.0095 92.0388 91.1499C90.3593 92.9808 88.7325 95.0637 87.2058 96.9936C86.6626 97.7029 86.2654 98.5119 86.0374 99.3737C85.7121 100.601 85.1837 101.805 84.823 103.053C84.4623 104.301 84.6233 104.819 84.3867 105.711C84.15 106.604 83.7786 107.104 83.5453 107.759C83.0129 108.923 82.6828 110.168 82.5691 111.44C82.4499 114.478 80.7368 117.224 81.7063 120.097C82.9337 123.572 80.6528 128.347 83.9261 130.861C86.027 132.506 88.1779 134.074 90.1638 135.928C91.2445 137.304 92.4285 138.596 93.7057 139.792C94.7378 140.419 95.8846 140.837 97.0809 141.022C98.8309 141.027 100.58 140.931 102.32 140.736C103.603 140.739 104.748 140.588 106.08 140.515C108.512 140.149 110.822 139.202 112.812 137.754C114.088 137.101 115.327 136.376 116.522 135.583C117.716 134.644 118.626 133.393 119.151 131.971C119.771 131.098 120.307 130.169 120.752 129.196C120.871 128.75 120.6 128.531 120.571 128.077C120.565 127.483 120.632 126.889 120.771 126.311C121.336 124.206 121.41 122.003 120.987 119.871C120.624 118.862 120.392 117.81 120.294 116.742C120.222 115.792 119.984 114.863 119.589 113.997C119.142 113.058 118.494 112.228 117.689 111.567C116.885 110.907 115.944 110.43 114.932 110.173C113.703 109.732 112.415 109.47 111.109 109.394C110.424 109.431 109.741 109.296 109.124 109C108.653 108.843 108.252 108.529 107.987 108.111C107.761 107.725 108.156 107.022 107.648 106.802C107.139 106.581 105.926 107.102 105.491 107.168C104.707 107.394 103.911 107.577 103.107 107.715C101.766 107.935 101.561 107.018 101.048 106.14C100.895 105.775 100.653 105.454 100.343 105.207C100.033 104.96 99.6647 104.796 99.2729 104.728C98.779 104.796 98.303 104.96 97.8723 105.212C97.4417 105.464 97.0651 105.799 96.7645 106.196C96.2333 107.337 95.8357 108.534 95.5796 109.764C95.2704 110.548 94.9086 111.311 94.4967 112.047C93.6356 113.493 91.5593 115.132 92.0539 116.869C92.379 117.587 92.7782 118.269 93.2452 118.905C93.6094 119.56 93.8646 120.27 94.0011 121.007C94.2289 122.226 94.6178 123.408 95.1578 124.524C95.9778 125.846 97.1102 126.946 98.4566 127.73C99.012 128.111 99.0317 128.712 99.6373 129.018C100.652 129.477 101.797 129.572 102.879 129.289C103.641 129.051 104.305 128.568 104.764 127.915C105.224 127.263 105.453 126.477 105.417 125.683C105.367 125.194 104.904 124.24 105.072 123.717C105.241 123.194 106.203 123.055 106.768 122.725C108.469 122.389 110.021 121.151 109.541 119.358C108.875 118.299 107.895 117.474 106.736 116.995C105.88 116.506 105.076 115.375 103.981 116.015C104.475 115.726 104.792 116.672 104.997 117.023C105.231 117.331 105.399 117.685 105.489 118.063C105.579 118.44 105.59 118.832 105.52 119.214C105.286 119.968 104.839 120.639 104.232 121.146C103.95 121.476 103.696 121.829 103.474 122.202C103.262 122.326 103.288 123.018 103.117 123.212C102.092 124.377 99.4985 121.324 99.1198 120.839C98.1215 119.538 98.677 117.894 99.4411 116.363C99.7805 115.646 100.112 114.51 100.839 114.131C101.728 113.816 102.647 113.594 103.581 113.469C104.361 113.343 105.064 113.167 105.768 112.991C106.471 112.815 107.035 113.05 107.809 113.399C108.568 113.709 109.363 113.924 110.176 114.04C110.935 114.349 111.594 114.86 112.083 115.515C112.982 116.403 112.9 117.723 113.622 118.714C114.345 119.705 115.188 120.012 115.752 120.813C116.82 122.639 117.806 124.323 115.767 126.27C115.514 126.608 115.16 126.857 114.757 126.983C114.353 127.109 113.921 127.105 113.522 126.972C112.543 126.838 112.08 127.344 111.508 128.15C110.845 129.013 110.112 129.821 109.316 130.564C108.273 131.122 107.159 131.536 106.005 131.794C105.14 132.394 104.23 132.926 103.284 133.386C102.49 133.569 101.1 132.733 100.317 132.531C99.3875 132.102 98.5066 131.575 97.69 130.958C96.8477 130.372 96.1434 129.611 95.6253 128.727C95.1734 127.955 94.079 128.029 93.3502 127.514C92.6052 126.783 92.0145 125.911 91.6125 124.949C91.2072 124.116 91.0407 123.186 91.1311 122.262C91.3035 121.238 91.2559 120.189 90.9915 119.187C90.3958 118.169 89.7591 117.081 89.1634 116.063C88.5678 115.045 89.0131 114.266 89.1618 113.142C89.2259 111.999 89.5228 110.879 90.0344 109.852C90.3442 109.246 90.8273 108.775 91.1018 108.19C91.3255 107.599 91.6432 107.047 92.0426 106.556C92.7615 105.758 93.2775 104.938 94.0375 104.211C94.4348 103.766 94.9074 103.393 95.4335 103.111C96.1401 102.698 96.905 102.627 97.6322 102.249C99.1641 101.439 100.856 100.98 102.585 100.905C104.368 100.71 106.16 100.368 107.958 100.118C109.755 99.8667 111.157 98.858 112.103 99.9067C112.452 100.503 112.801 101.1 113.483 101.455C114.165 101.81 115.06 101.475 115.842 101.677C116.624 101.879 116.756 102.509 117.105 103.105C117.623 104.011 118.35 104.781 119.225 105.351C120.316 106.08 121.892 106.1 123.053 106.787C124.028 107.323 124.926 107.985 125.724 108.758C126.327 109.301 126.484 110.057 127.101 110.544C128.479 111.764 130.293 112.351 131.792 113.454C132.98 114.354 133.949 115.51 134.626 116.837C134.815 117.364 134.93 117.915 134.967 118.475C135.151 119.357 135.624 120.164 135.843 121.025C136.013 121.744 136.139 122.473 136.219 123.208C136.213 123.932 136.16 124.655 136.063 125.373C136.152 127.065 136.942 128.252 136.545 130.086C135.906 132.318 135.395 134.584 135.014 136.872C134.858 137.803 134.53 138.699 134.045 139.512C133.691 140.225 133.413 140.972 133.215 141.741C132.703 142.854 132.028 143.885 131.21 144.799C129.92 146.403 128.847 147.973 127.423 149.513C125.615 151.711 123.659 153.784 121.569 155.718C119.644 157.05 117.585 158.176 115.425 159.078C114.899 159.339 114.391 159.636 113.906 159.967C113.319 160.603 112.907 161.38 112.711 162.221C111.773 164.781 110.413 167.169 108.688 169.287C106.733 171.651 104.143 173.412 101.224 174.362C98.9 174.91 96.4641 174.679 94.2942 173.705C92.0783 172.856 89.9502 171.798 87.939 170.544C86.9532 170.102 86.0021 169.588 85.0937 169.005C84.2343 168.291 83.421 167.523 82.6585 166.707C82.0596 166.032 81.3341 165.48 80.5223 165.083C79.4875 164.687 78.4325 164.345 77.3615 164.058C76.1099 163.9 74.9205 163.429 73.9041 162.689C72.638 161.497 71.2043 160.263 70.0236 158.975C68.6339 157.142 67.5849 155.075 66.9262 152.871C66.05 150.942 65.0627 149.065 63.9693 147.251C63.0655 145.706 61.9202 144.397 60.9663 142.929C60.6377 142.368 60.2885 141.771 59.9599 141.209C59.2539 140.398 58.4708 139.657 57.6216 138.996C56.1205 137.566 54.2423 136.545 52.6557 135.211C51.5595 134.158 50.5664 133.004 49.6897 131.763C48.5044 130.581 47.3914 129.328 46.3565 128.012C45.617 126.749 44.2564 125.801 44.1998 124.327C44.4512 121.352 46.1028 118.501 46.4011 115.688C46.4648 112.646 46.2725 109.606 45.8261 106.6C45.707 105.586 44.8196 104.88 44.6356 103.998C44.4516 103.116 44.9963 102.751 45.2059 102.298C44.6973 102.077 44.2996 102.451 43.8403 102.72C43.381 102.989 42.4895 103.087 41.8183 103.479C40.9331 103.879 40.0923 104.371 39.3098 104.947C38.7986 105.534 38.2526 106.089 37.6747 106.611C38.1127 104.847 38.586 103.062 39.277 101.244C45.3301 83.3027 57.7781 68.1696 74.2512 58.7259Z" fill="url(#paint1_radial)"/>
<path style="mix-blend-mode:multiply" opacity="0.3" fill-rule="evenodd" clip-rule="evenodd" d="M52.871 140.283C52.382 142.295 52.0959 144.353 52.017 146.423C52.505 146.423 53.1964 147.528 53.7251 147.774C54.2538 148.019 55.5959 148.101 56.4906 148.838C57.3853 149.575 58.1987 150.721 59.0935 151.008C59.7675 151.11 60.4529 151.11 61.1269 151.008C62.456 150.978 63.783 151.13 65.0719 151.458C66.5079 151.901 68.0027 152.122 69.5048 152.113C70.6315 151.931 71.6945 151.467 72.5957 150.762C73.3283 149.615 73.7101 148.277 73.6938 146.914C73.6426 145.294 73.2542 143.703 72.5536 142.243C71.8531 140.784 70.856 139.488 69.6268 138.441C68.4881 137.417 67.1867 137.417 65.9259 136.681C64.3776 135.813 62.7233 135.152 61.0049 134.716C59.9372 134.286 58.8144 134.01 57.67 133.897C56.5916 134.12 55.5413 134.463 54.5385 134.92C53.5226 135.051 52.5931 135.563 51.9356 136.353C51.6012 137.013 51.5117 137.771 51.6832 138.492C51.8546 139.212 52.2758 139.847 52.871 140.283V140.283Z" fill="url(#paint2_linear)"/>
<path style="mix-blend-mode:multiply" opacity="0.3" fill-rule="evenodd" clip-rule="evenodd" d="M140.082 66.0914C139.795 67.5295 139.627 68.9993 139.58 70.4787C139.867 70.4787 140.274 71.2684 140.584 71.4439C140.895 71.6194 141.684 71.6779 142.21 72.2043C142.736 72.7308 143.214 73.5498 143.74 73.7545C144.136 73.8274 144.539 73.8274 144.935 73.7545C145.717 73.7335 146.497 73.8417 147.254 74.0762C148.098 74.3931 148.977 74.5509 149.86 74.5442C150.522 74.4143 151.147 74.0824 151.677 73.579C152.108 72.7597 152.332 71.8037 152.322 70.8297C152.292 69.672 152.064 68.535 151.652 67.4921C151.24 66.4492 150.654 65.5236 149.932 64.7753C149.262 64.044 148.497 64.044 147.756 63.5176C146.846 62.8974 145.874 62.4254 144.864 62.1137C144.236 61.8066 143.576 61.6097 142.903 61.5287C142.269 61.6879 141.652 61.9332 141.062 62.2599C140.465 62.3533 139.919 62.7188 139.532 63.2836C139.336 63.7551 139.283 64.2969 139.384 64.8116C139.485 65.3263 139.732 65.7801 140.082 66.0914V66.0914Z" fill="url(#paint3_linear)"/>
<path style="mix-blend-mode:multiply" opacity="0.3" fill-rule="evenodd" clip-rule="evenodd" d="M96.4367 30.9477C95.6789 32.1243 95.2355 33.3269 95.1132 34.5373C95.8695 34.5373 96.9409 35.1834 97.7603 35.327C98.5796 35.4705 100.659 35.5184 102.046 35.9492C103.433 36.3799 104.693 37.05 106.08 37.2175C107.124 37.2771 108.186 37.2771 109.231 37.2175C111.291 37.2003 113.347 37.2888 115.345 37.4807C117.57 37.7399 119.887 37.869 122.214 37.8636C123.96 37.7573 125.608 37.4857 127.004 37.0739C128.14 36.4035 128.731 35.6213 128.706 34.8244C128.627 33.8773 128.025 32.947 126.939 32.0937C125.854 31.2404 124.308 30.4831 122.404 29.8708C120.639 29.2726 118.622 29.2726 116.668 28.8418C114.269 28.3344 111.705 27.9482 109.042 27.6931C107.387 27.4419 105.647 27.2808 103.874 27.2145C102.203 27.3448 100.575 27.5455 99.0208 27.8128C97.4464 27.8892 96.006 28.1883 94.9871 28.6504C94.4688 29.0361 94.3301 29.4794 94.5958 29.9006C94.8615 30.3217 95.5143 30.693 96.4367 30.9477V30.9477Z" fill="url(#paint4_linear)"/>
<path style="mix-blend-mode:multiply" opacity="0.3" fill-rule="evenodd" clip-rule="evenodd" d="M107.793 71.4706C107.662 71.9935 107.586 72.528 107.565 73.0659C107.695 73.0659 107.88 73.3531 108.021 73.4169C108.162 73.4807 108.521 73.502 108.76 73.6935C108.999 73.8849 109.216 74.1827 109.455 74.2571C109.636 74.2837 109.819 74.2837 109.999 74.2571C110.354 74.2495 110.708 74.2889 111.053 74.3741C111.437 74.4894 111.836 74.5467 112.237 74.5443C112.538 74.4971 112.822 74.3764 113.063 74.1933C113.259 73.8954 113.361 73.5478 113.357 73.1936C113.343 72.7726 113.239 72.3591 113.052 71.9799C112.865 71.6007 112.598 71.2641 112.27 70.992C111.966 70.7261 111.618 70.7261 111.281 70.5346C110.867 70.3091 110.425 70.1375 109.966 70.0241C109.681 69.9125 109.381 69.8409 109.075 69.8114C108.787 69.8693 108.506 69.9585 108.238 70.0773C107.967 70.1112 107.719 70.2442 107.543 70.4495C107.454 70.621 107.43 70.818 107.475 71.0052C107.521 71.1924 107.634 71.3574 107.793 71.4706V71.4706Z" fill="url(#paint5_linear)"/>
<path style="mix-blend-mode:multiply" opacity="0.5" fill-rule="evenodd" clip-rule="evenodd" d="M81.0428 50.7092C80.7553 52.1473 80.5871 53.6171 80.5407 55.0965C80.8276 55.0965 81.234 55.8862 81.5448 56.0617C81.8556 56.2372 82.6445 56.2957 83.1704 56.8221C83.6964 57.3486 84.1745 58.1676 84.7005 58.3723C85.0967 58.4452 85.4996 58.4452 85.8958 58.3723C86.6771 58.3513 87.4571 58.4595 88.2147 58.694C89.0589 59.0109 89.9375 59.1687 90.8205 59.162C91.4828 59.0321 92.1077 58.7002 92.6374 58.1968C93.0681 57.3775 93.2925 56.4215 93.2829 55.4475C93.2528 54.2898 93.0245 53.1528 92.6127 52.1099C92.2009 51.067 91.6148 50.1414 90.8922 49.3931C90.2229 48.6618 89.4579 48.6618 88.7168 48.1354C87.8066 47.5152 86.8342 47.0432 85.8241 46.7315C85.1964 46.4244 84.5364 46.2275 83.8637 46.1465C83.2298 46.3057 82.6124 46.551 82.0229 46.8777C81.4258 46.9711 80.8794 47.3366 80.4929 47.9014C80.2963 48.3729 80.2437 48.9147 80.3445 49.4294C80.4453 49.9441 80.6929 50.3979 81.0428 50.7092V50.7092Z" fill="url(#paint6_linear)"/>
<path style="mix-blend-mode:multiply" opacity="0.5" fill-rule="evenodd" clip-rule="evenodd" d="M141.393 158.446C143.471 160.099 145.698 161.585 148.041 162.882C148.278 162.418 149.885 162.414 150.424 162.056C150.964 161.699 151.71 160.472 152.992 160.057C154.274 159.642 155.987 159.545 156.751 158.864C157.196 158.284 157.529 157.633 157.739 156.932C158.35 155.652 159.169 154.48 160.172 153.449C161.38 152.347 162.36 151.057 163.079 149.624C163.417 148.446 163.398 147.162 163.026 145.889C162.063 144.516 160.709 143.364 159.133 142.575C157.245 141.667 155.226 141.097 153.207 140.901C151.188 140.705 149.214 140.887 147.412 141.437C145.682 141.915 145.05 143.152 143.59 143.915C141.84 144.873 140.277 146.055 138.94 147.431C137.927 148.192 137.065 149.096 136.379 150.116C136.112 151.273 135.996 152.473 136.035 153.696C135.692 154.738 135.829 155.924 136.419 157.015C137.016 157.722 137.844 158.255 138.756 158.517C139.668 158.78 140.603 158.754 141.393 158.446V158.446Z" fill="url(#paint7_linear)"/>
<path style="mix-blend-mode:multiply" opacity="0.3" fill-rule="evenodd" clip-rule="evenodd" d="M75.6858 152.031C75.1978 152.686 70.4394 157.393 72.7576 159.276C73.178 159.463 73.6134 159.614 74.059 159.727C74.7911 159.727 74.9131 159.727 75.5231 159.358C76.0299 158.919 76.3939 158.337 76.5679 157.688C76.742 157.038 76.718 156.351 76.4992 155.715C76.4016 155.214 76.2656 154.721 76.0925 154.241C75.8891 153.75 75.3604 153.586 75.2791 152.972L75.6858 152.031Z" fill="url(#paint8_linear)"/>
<path style="mix-blend-mode:screen" opacity="0.5" fill-rule="evenodd" clip-rule="evenodd" d="M36.5905 69.2984L42.0201 55.1723C42.0201 55.1723 55.6655 45.1233 87.357 48.8148C119.049 52.5062 126.592 71.9068 139.128 83.1863C151.665 94.4657 175.479 103.366 181.729 112.185C187.978 121.003 182.69 138.558 182.69 138.558L180.287 142.66C180.287 142.66 184.724 127.648 179.399 116.532C174.074 105.417 150.481 100.126 137.575 86.1805C124.669 72.235 98.34 61.2016 76.0043 60.9966C63.4245 60.5953 47.3931 67.5102 36.0001 73.4398L36.5905 69.2984Z" fill="url(#paint9_linear)"/>
<path style="mix-blend-mode:screen" fill-rule="evenodd" clip-rule="evenodd" d="M31.3538 90.0559C32.6145 106.921 68.729 79.9042 103.745 68.0331C144.862 54.0744 176.259 85.3894 181.017 83.752C188.134 81.1322 158.446 19.2391 111.513 19.6893C58.3989 19.9759 29.361 62.6297 31.3538 90.0559Z" fill="url(#paint10_linear)"/>
<path style="mix-blend-mode:screen" fill-rule="evenodd" clip-rule="evenodd" d="M67.5101 190.427C67.5101 190.427 105.739 205.573 142.342 182.609C178.944 159.645 184.882 107.903 184.882 107.903C184.882 107.903 180.408 168.773 145.107 188.299C109.806 207.825 83.4119 201.684 67.5101 190.427Z" fill="url(#paint11_radial)"/>
<path opacity="0.8" fill-rule="evenodd" clip-rule="evenodd" d="M31.8105 99.075C28.2316 99.8118 28.3536 107.671 30.5905 111.069C32.8273 114.466 35.7555 112.829 35.9182 105.952C36.0402 101.695 34.7387 98.461 31.8105 99.075Z" fill="white"/>
<defs>
<radialGradient id="paint0_radial" cx="0" cy="0" r="1" gradientUnits="userSpaceOnUse" gradientTransform="translate(83.8215 86.7237) scale(118.267 134.513)">
<stop offset="0.01" stop-color="#FFD7A9"/>
<stop offset="0.26" stop-color="#FFD076"/>
<stop offset="0.38" stop-color="#FFC148"/>
<stop offset="0.48" stop-color="#FFAC4A"/>
<stop offset="0.609375" stop-color="#FFA438"/>
<stop offset="0.7099" stop-color="#FFBE41"/>
<stop offset="0.78" stop-color="#FE7F49"/>
<stop offset="0.83" stop-color="#ED6142"/>
<stop offset="0.88" stop-color="#F14D19"/>
<stop offset="0.93" stop-color="#EF4800"/>
<stop offset="0.99" stop-color="#E255FC"/>
<stop offset="1" stop-color="#FF4D00"/>
</radialGradient>
<radialGradient id="paint1_radial" cx="0" cy="0" r="1" gradientUnits="userSpaceOnUse" gradientTransform="translate(108.773 104.494) rotate(-120.335) scale(57.6692 65.5912)">
<stop stop-color="#FF2E00"/>
<stop offset="1" stop-color="white"/>
</radialGradient>
<linearGradient id="paint2_linear" x1="51.651" y1="142.985" x2="73.5718" y2="142.985" gradientUnits="userSpaceOnUse">
<stop stop-color="white"/>
<stop offset="1" stop-color="#FF5C00"/>
</linearGradient>
<linearGradient id="paint3_linear" x1="139.365" y1="68.0218" x2="152.251" y2="68.0218" gradientUnits="userSpaceOnUse">
<stop stop-color="white"/>
<stop offset="1" stop-color="#FF5C00"/>
</linearGradient>
<linearGradient id="paint4_linear" x1="94.5459" y1="32.5271" x2="128.517" y2="32.5271" gradientUnits="userSpaceOnUse">
<stop stop-color="#FFE178"/>
<stop offset="1" stop-color="#FF440A"/>
</linearGradient>
<linearGradient id="paint5_linear" x1="107.467" y1="72.1725" x2="113.324" y2="72.1725" gradientUnits="userSpaceOnUse">
<stop stop-color="white"/>
<stop offset="1" stop-color="#FF5C00"/>
</linearGradient>
<linearGradient id="paint6_linear" x1="80.3256" y1="52.6396" x2="93.2112" y2="52.6396" gradientUnits="userSpaceOnUse">
<stop stop-color="#FFF8E1"/>
<stop offset="1" stop-color="#FF2E00"/>
</linearGradient>
<linearGradient id="paint7_linear" x1="143.908" y1="161.2" x2="154.589" y2="140.389" gradientUnits="userSpaceOnUse">
<stop stop-color="white"/>
<stop offset="1" stop-color="#FF5C00"/>
</linearGradient>
<linearGradient id="paint8_linear" x1="152.944" y1="445.162" x2="158.049" y2="445.162" gradientUnits="userSpaceOnUse">
<stop stop-color="#B8C2FF"/>
<stop offset="1" stop-color="#7D72B3"/>
</linearGradient>
<linearGradient id="paint9_linear" x1="112.059" y1="47.9944" x2="112.059" y2="142.742" gradientUnits="userSpaceOnUse">
<stop stop-color="#BDFFE8"/>
<stop offset="0.2" stop-color="#8BBBAA"/>
<stop offset="0.42" stop-color="#5A796E"/>
<stop offset="0.61" stop-color="#33453F"/>
<stop offset="0.78" stop-color="#171F1D"/>
<stop offset="0.91" stop-color="#060808"/>
<stop offset="1"/>
</linearGradient>
<linearGradient id="paint10_linear" x1="60.6382" y1="35.68" x2="146.684" y2="119.683" gradientUnits="userSpaceOnUse">
<stop offset="0.02" stop-color="#B3FFE8"/>
<stop offset="0.21" stop-color="#83BBAA"/>
<stop offset="0.43" stop-color="#55796E"/>
<stop offset="0.62" stop-color="#30453F"/>
<stop offset="0.78" stop-color="#161F1D"/>
<stop offset="0.92" stop-color="#060808"/>
<stop offset="1"/>
</linearGradient>
<radialGradient id="paint11_radial" cx="0" cy="0" r="1" gradientUnits="userSpaceOnUse" gradientTransform="translate(141.244 183.769) scale(50.8774 57.8664)">
<stop stop-color="#97E5D9"/>
<stop offset="0.36" stop-color="#61938C"/>
<stop offset="1"/>
</radialGradient>
</defs>
</svg>
