<svg width="209" height="226" viewBox="0 0 209 226" fill="none" xmlns="http://www.w3.org/2000/svg">
<g opacity="0.2">
<path d="M199.282 101.436C196.72 87.8457 196.028 72.2496 194.646 58.4546C193.263 44.6597 173.864 33.0752 156.742 25.9116C139.62 18.748 126.077 3.64318 100.333 1.59645C74.5896 -0.450284 45.3483 37.7008 41.6474 44.1684C37.9465 50.6361 32.5375 55.5892 15.2936 73.3958C12.8801 75.8708 11.0581 78.8665 9.96595 82.1558C9.6406 83.4111 9.35591 84.6801 9.1119 85.9627C8.78654 87.4363 8.50186 88.91 8.21717 90.4246C6.50906 110.155 18.0185 136.558 22.7361 152.604C29.0399 174.095 25.827 176.756 37.0111 189.978C44.2083 198.964 54.5596 204.826 65.927 206.351C76.9891 207.907 84.3909 218.386 98.7472 222.725C113.104 227.064 121.4 214.784 139.417 204.305C157.433 193.825 183.014 188.709 197.655 166.686C212.296 144.663 201.803 114.985 199.282 101.436ZM193.67 116.213C193.67 117.36 193.67 118.465 193.67 119.57C193.67 122.722 193.06 125.833 192.572 128.862C191.755 133.863 190.544 138.791 188.952 143.599C188.545 144.868 188.139 146.096 187.691 147.324C187.244 148.552 186.796 149.616 186.308 150.762C185.82 151.908 184.804 154.242 183.99 155.92C182.334 159.319 180.474 162.614 178.419 165.785L176.263 168.978C174.636 171.27 172.928 173.44 171.139 175.528C168.429 178.712 165.493 181.695 162.354 184.451C159.234 187.191 155.917 189.694 152.431 191.942C139.174 200.56 123.602 204.858 107.833 204.25C92.0631 203.642 76.8628 198.158 64.3003 188.545C63.8902 188.268 63.4964 187.967 63.1208 187.644C60.7958 185.843 58.5693 183.916 56.4511 181.872C55.5563 181.013 54.6616 180.153 53.8076 179.253L51.9774 177.288C51.042 176.264 50.1473 175.2 49.2526 174.136C47.3818 171.844 45.5923 169.428 43.8842 166.89C42.1225 164.253 40.5068 161.52 39.0446 158.704C38.5972 157.926 38.2312 157.189 37.8652 156.411C37.1331 155.019 36.4824 153.628 35.8724 152.318C35.2623 151.008 34.7336 149.616 34.2049 148.224C32.7863 144.493 31.5911 140.679 30.626 136.803C30.0566 134.593 29.5686 132.342 29.2026 130.09C28.6754 127.192 28.2953 124.268 28.0638 121.33C28.0222 120.854 28.0222 120.374 28.0638 119.897C28.0638 118.533 27.9825 117.169 27.8198 115.804C27.8198 114.658 27.8198 113.471 27.8198 112.325C27.8198 111.178 27.8198 109.009 27.8198 107.412C27.8198 104.547 28.1858 101.763 28.5519 98.9799C28.9179 96.1963 29.3246 93.8631 29.8533 91.3661C30.1786 89.8924 30.504 88.4188 30.87 86.9451C31.4801 84.6937 32.1308 82.4423 32.8628 80.2728C33.9305 77.0385 35.1797 73.8678 36.6044 70.776C42.3666 58.036 51 46.8234 61.8194 38.0283C64.7635 35.5177 67.8902 33.2326 71.1734 31.1922C80.4824 25.5579 90.8836 21.9984 101.675 20.7538C104.698 20.3757 107.74 20.1843 110.785 20.1808C122.837 20.2216 134.709 23.1248 145.436 28.6542C147.848 29.8986 150.196 31.2648 152.472 32.7477C156.713 35.5083 160.701 38.6455 164.388 42.1217C165.12 42.7767 165.811 43.4726 166.502 44.2094C167.845 45.5193 169.187 46.952 170.569 48.3028L171.749 49.6537C172.44 50.4724 173.132 51.332 173.782 52.1916C175.043 53.8699 176.304 55.5892 177.483 57.3494C178.663 59.1096 179.923 61.1972 181.062 63.203C182.201 65.2088 183.218 67.2965 184.194 69.1795C185.17 71.0625 185.983 73.273 186.796 75.115C188.092 78.4115 189.218 81.7725 190.172 85.1849C191.026 88.255 191.717 91.407 192.287 94.5999C192.694 97.015 193.019 99.512 193.263 101.968C193.263 103.728 193.588 105.488 193.629 107.29C193.67 109.091 193.629 110.442 193.629 112.079C193.629 113.716 193.751 114.903 193.67 116.213Z" fill="#CB5CFF"/>
</g>
<g opacity="0.1">
<path d="M181.306 64.7996C174.636 54.0748 169.105 40.8529 163.208 29.4731C157.311 18.0932 136.895 15.8828 119.732 16.374C102.57 16.8652 86.0174 9.37415 62.7951 17.9704C39.5729 26.5667 27.0061 71.1854 25.908 78.4309C24.8099 85.6763 21.8411 91.9393 12.6905 114.29C11.4303 117.376 10.8343 120.697 10.9417 124.032C10.9417 125.219 11.267 126.447 11.4297 127.634C11.5924 128.821 11.8771 130.459 12.1617 131.728C17.2861 149.78 35.9127 167.832 45.2666 180.112C57.7521 196.2 55.8407 199.761 69.6683 206.72C74.3119 209.148 79.3875 210.626 84.6019 211.069C89.8163 211.512 95.0662 210.91 100.048 209.299C110.175 206.188 120.017 212.287 133.845 210.281C147.672 208.275 150.844 194.317 163.005 177.984C175.165 161.651 195.54 146.955 201.112 122.026C206.683 97.0971 187.935 75.5245 181.306 64.7996ZM181.306 79.8636C181.631 80.846 181.956 81.8694 182.241 82.8518C183.085 85.6362 183.778 88.4649 184.315 91.3253C185.285 96.0164 185.856 100.782 186.023 105.571C186.023 106.799 186.023 108.027 186.023 109.255C186.023 110.442 186.023 111.629 186.023 112.775C186.023 114.617 186.023 116.418 185.657 118.219C185.368 121.824 184.851 125.406 184.112 128.944C183.868 130.172 183.583 131.4 183.258 132.587C182.607 135.207 181.875 137.745 180.98 140.283C179.697 144.107 178.162 147.84 176.385 151.458C174.584 155.092 172.532 158.593 170.244 161.938C162.249 173.852 151.204 183.37 138.278 189.487C124.106 196.128 108.159 197.897 92.8905 194.521L91.5891 194.194C88.9868 193.573 86.4207 192.808 83.9026 191.902C82.8452 191.533 81.7878 191.124 80.771 190.674L78.5342 189.691C77.3955 189.2 76.2567 188.627 75.1586 188.054C72.7467 186.833 70.4107 185.466 68.1635 183.96C65.7476 182.398 63.4379 180.675 61.2497 178.803L59.4603 177.329C58.4028 176.387 57.3861 175.446 56.41 174.463C55.4239 173.546 54.4872 172.575 53.6039 171.557C51.1284 168.904 48.8322 166.087 46.7307 163.125C45.5513 161.446 44.4126 159.686 43.3145 157.885C42.2164 156.084 40.671 153.259 39.2476 150.803C39.2476 150.394 38.8409 149.985 38.6782 149.575C38.1495 148.47 37.6615 147.324 37.1734 146.178C36.6854 145.031 36.36 144.172 35.9533 143.149C35.5467 142.125 34.9366 140.283 34.4486 139.055C33.6352 136.558 32.9438 134.02 32.3338 131.482C31.7237 128.944 31.317 126.734 30.9917 124.36C30.7477 122.968 30.585 121.535 30.4223 120.266C30.1783 118.056 30.0156 115.886 29.9343 113.676C29.7513 110.472 29.7513 107.26 29.9343 104.056C30.306 98.171 31.2181 92.3334 32.6591 86.6178C34.5572 79.2432 37.3577 72.1344 40.9963 65.4546C45.9204 56.3463 52.4689 48.2286 60.3143 41.5078C63.3172 38.9561 66.5126 36.6432 69.8716 34.5899C72.3525 33.0753 74.9553 31.6835 77.5988 30.4964C87.8957 25.7102 99.1654 23.4248 110.5 23.8241C112.981 23.8241 115.462 24.1516 117.943 24.52C122.483 25.1985 126.95 26.3087 131.282 27.8357L133.845 28.7772C135.444 29.4048 137.03 30.1007 138.603 30.8648L140.026 31.5198L142.629 32.9116C144.297 33.8531 145.964 34.8355 147.55 35.8998C149.136 36.9641 150.926 38.2331 152.593 39.502C154.261 40.771 155.725 42.04 157.229 43.5955C158.734 45.151 160.076 46.2562 161.296 47.689C163.485 50.0332 165.549 52.4928 167.478 55.0572C169.244 57.3979 170.886 59.83 172.399 62.3436C173.538 64.2675 174.636 66.437 175.693 68.3609C176.751 70.2849 177.117 71.2673 177.727 72.7819C178.337 74.2965 178.866 75.4836 179.394 76.8754C179.923 78.2671 180.899 78.7174 181.306 79.8636Z" fill="#F812FF"/>
</g>
<g opacity="0.1">
<path d="M182.278 163.247C187.565 150.721 195.496 137.745 201.84 125.833C208.185 113.921 198.953 91.6934 189.192 74.5827C179.431 57.4721 176.991 36.5135 157.266 17.6836C137.542 -1.14629 93.5375 9.94699 87.1931 12.6896C80.8487 15.4322 73.8129 15.8416 50.3059 18.5433C47.0521 18.9141 43.9452 20.1114 41.2773 22.0227C40.3419 22.8005 39.4472 23.6191 38.5525 24.4788C37.6578 25.3384 36.4377 26.4436 35.4209 27.467C23.2201 42.1216 18.2585 70.8577 13.2968 86.8631C6.70836 108.231 2.72276 108.231 4.47154 126.242C5.40076 138.331 10.4257 149.733 18.7058 158.54C26.8397 167.136 26.8397 180.44 36.0717 193.457C45.3036 206.474 58.4805 202.176 78.6118 205.737C98.7432 209.299 122.006 222.316 145.594 214.374C169.183 206.433 176.95 175.773 182.278 163.247ZM169.752 171.434L167.8 173.972C165.929 176.346 163.936 178.557 161.903 180.685C158.544 184.12 154.898 187.256 151.003 190.059C149.987 190.796 149.011 191.492 147.953 192.147L145.025 194.03C143.48 194.93 141.934 195.831 140.348 196.609C137.18 198.201 133.904 199.569 130.547 200.702L127.09 201.848C124.568 202.585 122.006 203.199 119.444 203.69C115.524 204.421 111.554 204.845 107.568 204.959C103.559 205.081 99.5471 204.875 95.571 204.345C80.8367 202.347 66.9711 196.171 55.593 186.539C42.08 175.21 32.1206 160.181 26.921 143.271C26.921 142.78 26.6364 142.289 26.4737 141.756C25.6196 138.809 24.8876 135.78 24.2775 132.71C23.9928 131.441 23.7895 130.172 23.5862 128.862C23.3828 127.552 23.3015 126.979 23.1795 126.078C23.0575 125.178 22.8541 123.172 22.7321 121.739C22.447 118.637 22.3248 115.522 22.3661 112.406C22.3692 109.043 22.5457 105.682 22.8948 102.336C22.8948 101.436 22.8948 100.576 23.2201 99.7166C23.2201 98.1611 23.6268 96.6056 23.9115 95.05C24.1962 93.4945 24.4402 92.1027 24.8062 90.6291C25.6566 86.723 26.7708 82.8799 28.1411 79.1265C28.8732 76.9979 29.7272 75.033 30.622 72.8226C31.5167 70.6121 33.0621 67.5829 34.4449 65.045C34.4449 64.6356 34.8922 64.2263 35.1363 63.8169C35.787 62.6708 36.4377 61.5655 37.1291 60.4603C37.8204 59.3551 38.3491 58.5364 38.9999 57.5949C39.6506 56.6534 40.83 54.9751 41.7654 53.747C43.3922 51.5366 45.1409 49.6536 46.9304 47.484C48.7198 45.3145 50.3059 43.9227 52.0954 42.2853C53.1528 41.3029 54.2102 40.3205 55.3083 39.4199C57.0164 37.9872 58.7245 36.6773 60.514 35.3264C67.8154 30.1371 75.9247 26.2082 84.5089 23.701C91.6863 21.6283 99.126 20.6216 106.592 20.7128C110.399 20.8515 114.191 21.2619 117.939 21.9408C124.505 23.0288 130.902 24.9689 136.972 27.7126C140.756 29.429 144.4 31.441 147.872 33.73C150.434 35.4492 152.996 37.2913 155.477 39.338C165.245 47.5298 173.174 57.7149 178.74 69.2203C180.001 71.7992 181.139 74.4599 182.156 77.1616C184.052 82.1639 185.548 87.3108 186.63 92.553C186.833 93.5764 187.036 94.5998 187.199 95.6231C187.524 97.588 187.85 99.7166 188.053 101.6C188.053 102.214 188.053 102.787 188.257 103.401C188.46 104.015 188.257 105.693 188.501 106.798V107.044C188.501 109.254 188.501 111.465 188.501 113.634C188.501 115.804 188.501 118.342 188.216 120.716C187.931 123.09 187.809 125.26 187.443 127.552C187.077 129.844 186.792 131.891 186.304 134.061C185.573 137.531 184.663 140.96 183.58 144.335C182.563 147.364 181.424 150.353 180.163 153.259C179.187 155.47 178.089 157.68 176.95 159.85C176.137 161.364 175.283 162.879 174.348 164.311C173.412 165.744 172.761 166.931 171.867 168.405C170.972 169.878 170.525 170.37 169.752 171.393V171.434Z" fill="#9FFAFF"/>
</g>
<path fill-rule="evenodd" clip-rule="evenodd" d="M187.284 112.57C187.561 137.408 178.361 161.407 161.581 179.621C154.168 187.565 145.212 193.89 135.268 198.205C126.276 202.104 116.591 204.124 106.8 204.141C103.261 204.151 99.7258 203.891 96.2257 203.363C93.0626 202.909 89.9364 202.225 86.8717 201.316C79.658 199.197 72.8028 195.995 66.537 191.819C62.4904 189.156 58.6926 186.128 55.1903 182.773C46.6207 174.647 39.7128 164.913 34.8556 154.118C31.6598 146.978 29.3382 139.473 27.9418 131.768C27.9418 131.768 27.9418 131.768 27.9418 131.768C26.7253 125.441 26.0855 119.015 26.0303 112.57C25.9481 95.3801 30.2767 78.4602 38.5972 63.4483C41.9375 57.5726 45.906 52.082 50.432 47.0745C57.4545 38.9975 66.0894 32.5008 75.7737 28.008C85.458 23.5151 95.9743 21.1269 106.637 20.9991C108.427 20.9991 110.175 20.9991 111.883 20.9991C120.885 21.6559 129.686 24.0023 137.83 27.9171C139.254 28.572 140.637 29.3088 141.897 30.0457C147.793 33.349 153.258 37.3779 158.165 42.0395C159.833 43.595 161.419 45.2733 162.964 46.9926L164.632 48.8756C179.477 66.7146 187.51 89.3008 187.284 112.57V112.57Z" fill="url(#paint0_radial)"/>
<path style="mix-blend-mode:multiply" opacity="0.4" fill-rule="evenodd" clip-rule="evenodd" d="M167.068 113.348C167.296 133.05 160.02 152.092 146.733 166.563C140.827 172.858 133.716 177.885 125.829 181.34C116.994 185.166 107.347 186.703 97.7703 185.809C88.1934 184.915 78.9918 181.619 71.0065 176.223C73.1213 175.609 75.0735 174.79 77.3103 174.176C82.2744 172.502 87.3597 171.215 92.5206 170.329C94.6355 170.083 97.889 169.141 97.9703 166.235C97.9703 165.457 97.9703 165.212 98.2957 164.761C98.6211 164.311 99.3938 164.516 100.004 164.352C101.468 163.984 102.647 162.264 103.623 161.036C105.127 159.113 106.743 157.281 108.463 155.551C111.92 152.154 116.597 150.557 118.671 145.645C119.122 144.316 119.435 142.945 119.606 141.552C119.785 140.809 120.111 140.11 120.566 139.498C121.02 138.886 121.593 138.373 122.25 137.99C123.887 137.201 125.429 136.226 126.846 135.084C128.075 133.639 128.927 131.908 129.326 130.049C129.901 127.064 130.254 124.04 130.384 121.002C130.384 119.488 130.953 117.973 130.994 116.418C130.969 115.007 130.665 113.615 130.099 112.324C129.367 109.95 128.391 107.494 127.496 105.202C127.158 104.374 126.661 103.623 126.032 102.991C125.137 102.091 124.365 101.026 123.47 100.085C122.575 99.1433 122.047 99.0205 121.396 98.3655C120.745 97.7106 120.501 97.1375 120.054 96.6053C119.318 95.5579 118.41 94.6443 117.37 93.9037C114.807 92.2663 113.303 89.4009 110.334 88.7868C106.714 88.0909 103.745 83.7109 99.9225 85.2665C97.4416 86.2489 95.0015 87.3132 92.3986 88.0909C90.6653 88.3288 88.9523 88.6982 87.2743 89.1962C86.212 89.7703 85.2723 90.5492 84.5088 91.4885C83.6206 92.9964 82.8194 94.5545 82.1093 96.1551C81.4586 97.2603 81.0112 98.3246 80.4012 99.5117C79.4888 101.795 79.1399 104.267 79.3844 106.716C79.3033 108.148 79.3033 109.583 79.3844 111.014C79.5919 112.52 80.2115 113.937 81.1739 115.108C81.6139 116.084 82.145 117.016 82.76 117.891C83.0854 118.219 83.4107 118.096 83.8174 118.301C84.3336 118.595 84.8117 118.953 85.2408 119.365C86.772 120.916 88.6365 122.092 90.6905 122.803C91.7443 123 92.7691 123.331 93.7407 123.786C94.5968 124.204 95.5191 124.467 96.4656 124.564C97.5022 124.653 98.5456 124.512 99.5223 124.151C100.499 123.791 101.385 123.219 102.119 122.476C103.12 121.637 103.996 120.659 104.721 119.57C105.035 118.959 105.497 118.439 106.064 118.055C106.437 117.728 106.911 117.54 107.406 117.523C107.853 117.523 108.26 118.219 108.707 117.891C109.154 117.564 109.317 116.254 109.48 115.845C109.681 115.054 109.925 114.275 110.212 113.511C110.7 112.242 111.595 112.529 112.611 112.529C113.004 112.582 113.403 112.535 113.773 112.392C114.142 112.249 114.47 112.014 114.726 111.71C114.917 111.25 115.016 110.756 115.016 110.257C115.016 109.758 114.917 109.264 114.726 108.804C114.01 107.769 113.178 106.822 112.245 105.979C111.725 105.316 111.249 104.619 110.822 103.892C110.008 102.418 109.642 99.7982 107.894 99.348C107.11 99.2658 106.319 99.2658 105.535 99.348C104.786 99.3315 104.044 99.1933 103.339 98.9386C102.172 98.5196 100.954 98.2581 99.7191 98.1609C98.1642 98.201 96.6425 98.6226 95.2862 99.3889C94.6761 99.6754 94.1474 99.3889 93.5781 99.7573C92.6694 100.402 92.0088 101.341 91.7073 102.418C91.527 103.196 91.609 104.013 91.9403 104.739C92.2716 105.465 92.8335 106.06 93.5374 106.43C93.9847 106.634 95.0421 106.716 95.4082 107.126C95.7742 107.535 95.4082 108.435 95.4082 109.09C94.8388 110.728 95.1235 112.693 96.9129 113.184C98.1636 113.144 99.3711 112.715 100.37 111.956C101.224 111.465 102.607 111.342 102.607 110.073C102.607 110.646 101.631 110.441 101.224 110.441C100.839 110.488 100.449 110.454 100.078 110.341C99.7071 110.228 99.3633 110.039 99.0684 109.786C98.5362 109.204 98.183 108.479 98.0517 107.699C97.9096 107.288 97.7327 106.891 97.523 106.512C97.523 106.266 96.9129 105.938 96.8316 105.693C96.3436 104.219 100.289 103.523 100.899 103.441C102.525 103.237 103.664 104.547 104.599 105.979C105.047 106.634 105.86 107.494 105.82 108.313C105.642 109.239 105.37 110.145 105.006 111.014C104.721 111.751 104.518 112.447 104.315 113.143C104.111 113.839 103.623 114.207 102.932 114.698C102.281 115.197 101.694 115.774 101.183 116.418C100.532 116.916 99.7593 117.228 98.9464 117.318C97.7263 117.646 96.6283 116.909 95.4082 117.032C94.1881 117.155 93.4967 117.728 92.5206 117.809C90.4058 117.809 88.4537 117.809 87.803 115.067C87.64 114.677 87.6033 114.246 87.6983 113.834C87.7932 113.423 88.0149 113.052 88.3317 112.775C88.9417 111.997 88.7384 111.342 88.3317 110.441C87.9212 109.433 87.5947 108.393 87.3556 107.33C87.4004 106.148 87.6057 104.977 87.9657 103.851C87.8852 102.802 87.8852 101.748 87.9657 100.699C88.2097 99.921 89.6331 99.1433 90.2025 98.5702C91.0426 97.9842 91.9424 97.4902 92.8867 97.0966C93.8179 96.6656 94.8306 96.4422 95.8555 96.4416C96.7503 96.4416 97.2383 95.4592 98.0517 95.0908C99.0582 94.8166 100.109 94.747 101.143 94.8861C102.066 94.9571 102.953 95.2828 103.705 95.8276C104.502 96.4939 105.431 96.9822 106.43 97.2603C107.609 97.2603 108.87 97.2603 110.049 97.2603C111.229 97.2603 111.676 98.0381 112.571 98.7339C113.525 99.3667 114.341 100.188 114.97 101.149C115.336 101.722 115.499 102.377 115.865 102.909C116.262 103.401 116.578 103.954 116.8 104.547C117.126 105.57 117.573 106.43 117.817 107.453C118.001 108.021 118.083 108.617 118.061 109.213C118.061 110.032 117.736 110.728 117.695 111.546C117.62 113.278 117.161 114.97 116.353 116.5C115.621 118.137 115.011 119.856 114.319 121.535C113.628 123.213 113.791 124.932 112.408 125.219C111.717 125.219 111.025 125.219 110.375 125.628C109.724 126.037 109.561 126.979 108.992 127.552C108.422 128.125 107.812 127.92 107.121 127.92C106.077 127.911 105.046 128.149 104.111 128.616C102.932 129.189 102.119 130.54 100.939 131.195C99.9846 131.766 98.9589 132.206 97.889 132.505C97.1163 132.751 96.3842 132.505 95.6522 132.792C93.9034 133.365 92.48 134.634 90.7719 135.37C89.3947 135.942 87.9073 136.193 86.4202 136.107C85.8697 136.004 85.3359 135.825 84.8341 135.575C83.9801 135.289 83.0447 135.289 82.1906 135.043C81.4841 134.827 80.7915 134.567 80.1165 134.265C79.4952 133.894 78.8975 133.484 78.327 133.037C76.8223 132.259 75.3988 132.341 74.0161 131.072C72.4119 129.394 70.7147 127.809 68.9324 126.324C68.2069 125.719 67.6 124.983 67.1429 124.154C66.7068 123.489 66.2025 122.872 65.6382 122.312C64.9364 121.309 64.388 120.205 64.0114 119.038C63.2794 117.114 62.466 115.394 61.8559 113.389C60.8718 110.718 60.0701 107.982 59.4564 105.202C59.2791 102.868 59.3473 100.521 59.6598 98.2018C59.7004 97.6158 59.7004 97.0276 59.6598 96.4416C59.4069 95.6135 58.9444 94.8658 58.3177 94.2721C56.5822 92.1693 55.2077 89.7897 54.2508 87.2313C53.1977 84.3496 52.986 81.2247 53.6407 78.2257C54.3414 75.9434 55.771 73.9576 57.7076 72.5767C59.5591 71.0927 61.5474 69.7905 63.6454 68.6879C64.5246 68.0602 65.449 67.4992 66.4109 67.0096C67.4613 66.6285 68.5343 66.3141 69.6238 66.0681C70.5088 65.8922 71.3514 65.5446 72.1046 65.0448C72.9691 64.3517 73.7971 63.6139 74.5854 62.8343C75.3536 61.8337 76.361 61.045 77.5136 60.5419C79.1811 60.0507 80.9705 59.4367 82.6787 59.0683C84.9622 58.7943 87.276 58.9329 89.5111 59.4776C91.6187 59.6957 93.737 59.7913 95.8555 59.7642C97.645 59.7642 99.3531 59.4367 101.102 59.3548C101.753 59.3548 102.444 59.3548 103.095 59.3548C104.151 59.1552 105.186 58.8536 106.186 58.4543C108.178 57.8812 110.008 56.776 111.961 56.0801C113.423 55.6655 114.921 55.3914 116.434 55.2614C118.054 54.8357 119.697 54.5077 121.355 54.2789C122.819 54.2789 124.324 53.5831 125.626 54.2789C128.066 55.9982 129.692 58.8636 131.97 60.5419C134.563 62.133 137.284 63.5023 140.104 64.6354C141.039 65.0448 142.097 64.6354 142.951 64.9219C143.805 65.2085 143.845 65.8634 144.13 66.2728C144.577 65.9453 144.455 65.4132 144.455 64.881C144.455 64.3489 144.821 63.5302 144.821 62.7524C144.923 61.7863 144.923 60.8121 144.821 59.8461C144.573 59.1086 144.37 58.3568 144.211 57.5947C145.513 58.8636 146.814 60.1735 148.034 61.6881C160.462 75.9736 167.237 94.3603 167.068 113.348Z" fill="url(#paint1_radial)"/>
<path style="mix-blend-mode:multiply" opacity="0.3" fill-rule="evenodd" clip-rule="evenodd" d="M52.871 140.283C52.382 142.295 52.0959 144.353 52.0169 146.423C52.505 146.423 53.1964 147.528 53.7251 147.774C54.2538 148.019 55.5959 148.101 56.4906 148.838C57.3853 149.575 58.1987 150.721 59.0934 151.008C59.7674 151.11 60.4529 151.11 61.1269 151.008C62.456 150.978 63.783 151.13 65.0718 151.458C66.5079 151.901 68.0027 152.122 69.5048 152.113C70.6315 151.931 71.6945 151.467 72.5957 150.762C73.3283 149.615 73.7101 148.277 73.6937 146.914C73.6426 145.294 73.2541 143.703 72.5536 142.243C71.853 140.784 70.856 139.488 69.6268 138.441C68.4881 137.417 67.1866 137.417 65.9259 136.681C64.3776 135.813 62.7233 135.152 61.0049 134.716C59.9371 134.286 58.8144 134.01 57.67 133.897C56.5916 134.12 55.5412 134.463 54.5384 134.92C53.5226 135.051 52.593 135.563 51.9356 136.353C51.6012 137.013 51.5117 137.771 51.6831 138.492C51.8546 139.212 52.2758 139.847 52.871 140.283V140.283Z" fill="url(#paint2_linear)"/>
<path style="mix-blend-mode:multiply" opacity="0.3" fill-rule="evenodd" clip-rule="evenodd" d="M140.082 66.0914C139.795 67.5295 139.627 68.9993 139.58 70.4787C139.867 70.4787 140.274 71.2684 140.584 71.4438C140.895 71.6193 141.684 71.6778 142.21 72.2043C142.736 72.7308 143.214 73.5497 143.74 73.7545C144.136 73.8274 144.539 73.8274 144.935 73.7545C145.717 73.7335 146.497 73.8417 147.254 74.0762C148.098 74.393 148.977 74.5508 149.86 74.5442C150.522 74.4143 151.147 74.0823 151.677 73.579C152.108 72.7597 152.332 71.8036 152.322 70.8296C152.292 69.672 152.064 68.535 151.652 67.4921C151.24 66.4492 150.654 65.5236 149.932 64.7752C149.262 64.044 148.497 64.044 147.756 63.5175C146.846 62.8974 145.874 62.4254 144.864 62.1136C144.236 61.8066 143.576 61.6096 142.903 61.5287C142.269 61.6879 141.652 61.9331 141.062 62.2599C140.465 62.3532 139.919 62.7188 139.532 63.2836C139.336 63.755 139.283 64.2969 139.384 64.8116C139.485 65.3263 139.732 65.7801 140.082 66.0914V66.0914Z" fill="url(#paint3_linear)"/>
<path style="mix-blend-mode:multiply" opacity="0.3" fill-rule="evenodd" clip-rule="evenodd" d="M96.4367 30.9477C95.6789 32.1243 95.2355 33.3269 95.1132 34.5373C95.8695 34.5373 96.9409 35.1834 97.7603 35.327C98.5796 35.4705 100.659 35.5184 102.046 35.9492C103.433 36.3799 104.693 37.05 106.08 37.2175C107.124 37.2771 108.186 37.2771 109.231 37.2175C111.291 37.2003 113.347 37.2888 115.345 37.4807C117.57 37.7399 119.887 37.869 122.214 37.8636C123.96 37.7573 125.608 37.4857 127.004 37.0739C128.14 36.4035 128.731 35.6213 128.706 34.8244C128.627 33.8773 128.025 32.947 126.939 32.0937C125.854 31.2404 124.308 30.4831 122.404 29.8708C120.639 29.2726 118.622 29.2726 116.668 28.8418C114.269 28.3344 111.705 27.9482 109.042 27.6931C107.387 27.4419 105.647 27.2808 103.874 27.2145C102.203 27.3448 100.575 27.5455 99.0208 27.8128C97.4464 27.8892 96.006 28.1883 94.9871 28.6504C94.4688 29.0361 94.3301 29.4794 94.5958 29.9006C94.8615 30.3217 95.5143 30.693 96.4367 30.9477V30.9477Z" fill="url(#paint4_linear)"/>
<path style="mix-blend-mode:multiply" opacity="0.3" fill-rule="evenodd" clip-rule="evenodd" d="M107.793 71.4706C107.662 71.9935 107.586 72.528 107.565 73.0659C107.695 73.0659 107.88 73.3531 108.021 73.4169C108.162 73.4807 108.521 73.502 108.76 73.6935C108.999 73.8849 109.216 74.1827 109.455 74.2571C109.636 74.2837 109.819 74.2837 109.999 74.2571C110.354 74.2495 110.708 74.2889 111.053 74.3741C111.437 74.4894 111.836 74.5467 112.237 74.5443C112.538 74.4971 112.822 74.3764 113.063 74.1933C113.259 73.8954 113.361 73.5478 113.357 73.1936C113.343 72.7726 113.239 72.3591 113.052 71.9799C112.865 71.6007 112.598 71.2641 112.27 70.992C111.966 70.7261 111.618 70.7261 111.281 70.5346C110.867 70.3091 110.425 70.1375 109.966 70.0241C109.681 69.9125 109.381 69.8409 109.075 69.8114C108.787 69.8693 108.506 69.9585 108.238 70.0773C107.967 70.1112 107.719 70.2442 107.543 70.4495C107.454 70.621 107.43 70.818 107.475 71.0052C107.521 71.1924 107.634 71.3574 107.793 71.4706V71.4706Z" fill="url(#paint5_linear)"/>
<path style="mix-blend-mode:multiply" opacity="0.5" fill-rule="evenodd" clip-rule="evenodd" d="M81.0428 50.7092C80.7553 52.1473 80.5871 53.6171 80.5407 55.0964C80.8276 55.0964 81.234 55.8861 81.5448 56.0616C81.8556 56.2371 82.6445 56.2956 83.1704 56.8221C83.6964 57.3486 84.1745 58.1675 84.7005 58.3723C85.0967 58.4452 85.4996 58.4452 85.8958 58.3723C86.6771 58.3513 87.4571 58.4595 88.2147 58.694C89.0589 59.0108 89.9375 59.1686 90.8205 59.162C91.4828 59.0321 92.1077 58.7001 92.6374 58.1968C93.0681 57.3775 93.2925 56.4214 93.2829 55.4474C93.2528 54.2898 93.0245 53.1528 92.6127 52.1099C92.2009 51.067 91.6148 50.1414 90.8922 49.393C90.2229 48.6618 89.4579 48.6618 88.7168 48.1353C87.8066 47.5151 86.8342 47.0432 85.8241 46.7314C85.1964 46.4244 84.5364 46.2274 83.8637 46.1465C83.2298 46.3057 82.6124 46.5509 82.0229 46.8777C81.4258 46.971 80.8794 47.3366 80.4929 47.9014C80.2963 48.3728 80.2437 48.9147 80.3445 49.4294C80.4453 49.9441 80.6929 50.3979 81.0428 50.7092V50.7092Z" fill="url(#paint6_linear)"/>
<path style="mix-blend-mode:multiply" opacity="0.5" fill-rule="evenodd" clip-rule="evenodd" d="M141.393 158.446C143.471 160.099 145.698 161.585 148.041 162.882C148.278 162.418 149.885 162.414 150.424 162.056C150.964 161.699 151.71 160.472 152.992 160.057C154.274 159.642 155.987 159.545 156.751 158.864C157.196 158.284 157.529 157.633 157.739 156.932C158.35 155.652 159.169 154.48 160.172 153.449C161.38 152.347 162.36 151.057 163.079 149.624C163.417 148.446 163.398 147.162 163.026 145.889C162.063 144.516 160.709 143.364 159.133 142.575C157.245 141.667 155.226 141.097 153.207 140.901C151.188 140.705 149.214 140.887 147.412 141.437C145.682 141.915 145.05 143.152 143.59 143.915C141.84 144.873 140.277 146.055 138.94 147.431C137.927 148.192 137.065 149.096 136.379 150.116C136.112 151.273 135.996 152.473 136.035 153.696C135.692 154.738 135.829 155.924 136.419 157.015C137.016 157.722 137.844 158.255 138.756 158.517C139.668 158.78 140.603 158.754 141.393 158.446V158.446Z" fill="url(#paint7_linear)"/>
<path style="mix-blend-mode:multiply" opacity="0.3" fill-rule="evenodd" clip-rule="evenodd" d="M75.6858 152.031C75.1978 152.686 70.4394 157.393 72.7576 159.276C73.178 159.463 73.6134 159.614 74.059 159.727C74.7911 159.727 74.9131 159.727 75.5231 159.358C76.0299 158.919 76.3939 158.337 76.5679 157.688C76.742 157.038 76.718 156.351 76.4992 155.715C76.4016 155.214 76.2656 154.721 76.0925 154.241C75.8891 153.75 75.3604 153.586 75.2791 152.972L75.6858 152.031Z" fill="url(#paint8_linear)"/>
<path style="mix-blend-mode:screen" opacity="0.5" fill-rule="evenodd" clip-rule="evenodd" d="M30.1102 141.989L35.5398 156.115C35.5398 156.115 49.1852 166.164 80.8767 162.473C112.568 158.782 120.112 139.381 132.648 128.101C145.184 116.822 168.999 107.922 175.249 99.1031C181.498 90.2846 176.21 72.7297 176.21 72.7297L173.806 68.6281C173.806 68.6281 178.244 83.64 172.919 94.7554C167.594 105.871 144.001 111.162 131.095 125.107C118.189 139.053 91.8597 150.086 69.524 150.291C56.9442 150.692 40.9128 143.778 29.5198 137.848L30.1102 141.989Z" fill="url(#paint9_linear)"/>
<path style="mix-blend-mode:screen" fill-rule="evenodd" clip-rule="evenodd" d="M31.3538 90.0559C32.6145 106.921 68.7289 79.9042 103.745 68.0331C144.862 54.0744 176.259 85.3894 181.017 83.752C188.134 81.1322 158.446 19.2391 111.513 19.6893C58.3989 19.9759 29.361 62.6297 31.3538 90.0559Z" fill="url(#paint10_linear)"/>
<path style="mix-blend-mode:screen" fill-rule="evenodd" clip-rule="evenodd" d="M67.5101 190.427C67.5101 190.427 105.739 205.573 142.342 182.609C178.944 159.645 184.882 107.903 184.882 107.903C184.882 107.903 180.408 168.773 145.107 188.299C109.806 207.825 83.4118 201.684 67.5101 190.427Z" fill="url(#paint11_radial)"/>
<path opacity="0.8" fill-rule="evenodd" clip-rule="evenodd" d="M32.8105 101.075C29.2316 101.812 29.3536 109.671 31.5905 113.069C33.8273 116.466 36.7555 114.829 36.9182 107.952C37.0402 103.695 35.7387 100.461 32.8105 101.075Z" fill="white"/>
<defs>
<radialGradient id="paint0_radial" cx="0" cy="0" r="1" gradientUnits="userSpaceOnUse" gradientTransform="translate(83.8215 86.7237) scale(118.267 134.513)">
<stop offset="0.01" stop-color="#00CEC0"/>
<stop offset="0.26" stop-color="#00CCC0"/>
<stop offset="0.38" stop-color="#00C4C1"/>
<stop offset="0.48" stop-color="#00B7C2"/>
<stop offset="0.56" stop-color="#00A4C4"/>
<stop offset="0.64" stop-color="#008CC6"/>
<stop offset="0.71" stop-color="#006EC8"/>
<stop offset="0.72" stop-color="#0068C9"/>
<stop offset="0.74" stop-color="#0767CB"/>
<stop offset="0.78" stop-color="#1A66CF"/>
<stop offset="0.83" stop-color="#3A63D6"/>
<stop offset="0.88" stop-color="#6660E0"/>
<stop offset="0.93" stop-color="#9E5BEC"/>
<stop offset="0.99" stop-color="#E255FC"/>
<stop offset="1" stop-color="#F154FF"/>
</radialGradient>
<radialGradient id="paint1_radial" cx="0" cy="0" r="1" gradientUnits="userSpaceOnUse" gradientTransform="translate(110.131 120.028) scale(57.6692 65.5912)">
<stop stop-color="#1372B3"/>
<stop offset="1" stop-color="white"/>
</radialGradient>
<linearGradient id="paint2_linear" x1="51.6509" y1="142.985" x2="73.5717" y2="142.985" gradientUnits="userSpaceOnUse">
<stop stop-color="#B8C2FF"/>
<stop offset="1" stop-color="#7D72B3"/>
</linearGradient>
<linearGradient id="paint3_linear" x1="139.365" y1="68.0218" x2="152.251" y2="68.0218" gradientUnits="userSpaceOnUse">
<stop stop-color="#B8C2FF"/>
<stop offset="1" stop-color="#7D72B3"/>
</linearGradient>
<linearGradient id="paint4_linear" x1="94.5459" y1="32.5271" x2="128.517" y2="32.5271" gradientUnits="userSpaceOnUse">
<stop stop-color="#B8C2FF"/>
<stop offset="1" stop-color="#7D72B3"/>
</linearGradient>
<linearGradient id="paint5_linear" x1="107.467" y1="72.1725" x2="113.324" y2="72.1725" gradientUnits="userSpaceOnUse">
<stop stop-color="#B8C2FF"/>
<stop offset="1" stop-color="#7D72B3"/>
</linearGradient>
<linearGradient id="paint6_linear" x1="80.3256" y1="52.6396" x2="93.2112" y2="52.6396" gradientUnits="userSpaceOnUse">
<stop stop-color="#B8C2FF"/>
<stop offset="1" stop-color="#7D72B3"/>
</linearGradient>
<linearGradient id="paint7_linear" x1="143.908" y1="161.2" x2="154.589" y2="140.389" gradientUnits="userSpaceOnUse">
<stop stop-color="#B8C2FF"/>
<stop offset="1" stop-color="#7D72B3"/>
</linearGradient>
<linearGradient id="paint8_linear" x1="152.944" y1="445.162" x2="158.049" y2="445.162" gradientUnits="userSpaceOnUse">
<stop stop-color="#B8C2FF"/>
<stop offset="1" stop-color="#7D72B3"/>
</linearGradient>
<linearGradient id="paint9_linear" x1="105.579" y1="163.293" x2="105.579" y2="68.546" gradientUnits="userSpaceOnUse">
<stop stop-color="#BDFFE8"/>
<stop offset="0.2" stop-color="#8BBBAA"/>
<stop offset="0.42" stop-color="#5A796E"/>
<stop offset="0.61" stop-color="#33453F"/>
<stop offset="0.78" stop-color="#171F1D"/>
<stop offset="0.91" stop-color="#060808"/>
<stop offset="1"/>
</linearGradient>
<linearGradient id="paint10_linear" x1="60.6382" y1="35.68" x2="146.684" y2="119.683" gradientUnits="userSpaceOnUse">
<stop offset="0.02" stop-color="#B3FFE8"/>
<stop offset="0.21" stop-color="#83BBAA"/>
<stop offset="0.43" stop-color="#55796E"/>
<stop offset="0.62" stop-color="#30453F"/>
<stop offset="0.78" stop-color="#161F1D"/>
<stop offset="0.92" stop-color="#060808"/>
<stop offset="1"/>
</linearGradient>
<radialGradient id="paint11_radial" cx="0" cy="0" r="1" gradientUnits="userSpaceOnUse" gradientTransform="translate(141.244 183.769) scale(50.8774 57.8664)">
<stop stop-color="#97E5D9"/>
<stop offset="0.36" stop-color="#61938C"/>
<stop offset="1"/>
</radialGradient>
</defs>
</svg>
