<svg xmlns="http://www.w3.org/2000/svg" xmlns:xlink="http://www.w3.org/1999/xlink" viewBox="0 0 88.12 62.76"><defs><style>.cls-1{fill:none;}.cls-2{isolation:isolate;}.cls-3{fill:#5b2463;}.cls-10,.cls-11,.cls-12,.cls-134,.cls-136,.cls-137,.cls-138,.cls-139,.cls-140,.cls-141,.cls-142,.cls-143,.cls-144,.cls-145,.cls-146,.cls-147,.cls-148,.cls-149,.cls-150,.cls-151,.cls-152,.cls-153,.cls-154,.cls-3,.cls-4,.cls-5,.cls-6,.cls-7,.cls-8,.cls-9{fill-rule:evenodd;}.cls-4{fill:url(#_ÂÁ_Ï_ÌÌ_È_ËÂÌÚ_47);}.cls-5{fill:url(#_ÂÁ_Ï_ÌÌ_È_ËÂÌÚ_62);}.cls-6{fill:url(#_ÂÁ_Ï_ÌÌ_È_ËÂÌÚ_143);}.cls-7{fill:url(#_ÂÁ_Ï_ÌÌ_È_ËÂÌÚ_32);}.cls-8{fill:url(#_ÂÁ_Ï_ÌÌ_È_ËÂÌÚ_62-2);}.cls-9{fill:url(#_ÂÁ_Ï_ÌÌ_È_ËÂÌÚ_32-2);}.cls-10{fill:url(#_ÂÁ_Ï_ÌÌ_È_ËÂÌÚ_22);}.cls-11,.cls-138,.cls-144,.cls-146,.cls-149{mix-blend-mode:multiply;}.cls-11,.cls-149{opacity:0.74;}.cls-11{fill:url(#_ÂÁ_Ï_ÌÌ_È_ËÂÌÚ_202);}.cls-12{fill:url(#_ÂÁ_Ï_ÌÌ_È_ËÂÌÚ_47-2);}.cls-13{clip-path:url(#clip-path);}.cls-14{fill:#610057;}.cls-15{fill:#630257;}.cls-16{fill:#660356;}.cls-17{fill:#680556;}.cls-18{fill:#6b0655;}.cls-19{fill:#6d0855;}.cls-20{fill:#700a55;}.cls-21{fill:#720b54;}.cls-22{fill:#740d54;}.cls-23{fill:#770e53;}.cls-24{fill:#791053;}.cls-25{fill:#7b1153;}.cls-26{fill:#7d1352;}.cls-27{fill:#7f1452;}.cls-28{fill:#821652;}.cls-29{fill:#841751;}.cls-30{fill:#861851;}.cls-31{fill:#881a51;}.cls-32{fill:#8a1b50;}.cls-33{fill:#8c1c50;}.cls-34{fill:#8e1e50;}.cls-35{fill:#901f4f;}.cls-36{fill:#92204f;}.cls-37{fill:#94224f;}.cls-38{fill:#96234e;}.cls-39{fill:#98244e;}.cls-40{fill:#9a264e;}.cls-41{fill:#9c274d;}.cls-42{fill:#9e284d;}.cls-43{fill:#a0294d;}.cls-44{fill:#a22b4c;}.cls-45{fill:#a32c4c;}.cls-46{fill:#a52d4c;}.cls-47{fill:#a72e4b;}.cls-48{fill:#a92f4b;}.cls-49{fill:#aa304b;}.cls-50{fill:#ac314b;}.cls-51{fill:#ae334a;}.cls-52{fill:#b0344a;}.cls-53{fill:#b1354a;}.cls-54{fill:#b3364a;}.cls-55{fill:#b43749;}.cls-56{fill:#b63849;}.cls-57{fill:#b83949;}.cls-58{fill:#b93a49;}.cls-59{fill:#bb3b48;}.cls-60{fill:#bc3c48;}.cls-61{fill:#be3d48;}.cls-62{fill:#bf3e48;}.cls-63{fill:#c13f47;}.cls-64{fill:#c24047;}.cls-65{fill:#c34147;}.cls-66{fill:#c54247;}.cls-67{fill:#c64346;}.cls-68{fill:#c74346;}.cls-69{fill:#c94446;}.cls-70{fill:#ca4546;}.cls-71{fill:#cb4645;}.cls-72{fill:#cd4745;}.cls-73{fill:#ce4845;}.cls-74{fill:#cf4845;}.cls-75{fill:#d04945;}.cls-76{fill:#d24a44;}.cls-77{fill:#d34b44;}.cls-78{fill:#d44c44;}.cls-79{fill:#d54c44;}.cls-80{fill:#d64d44;}.cls-81{fill:#d74e44;}.cls-82{fill:#d84f43;}.cls-83{fill:#d94f43;}.cls-84{fill:#da5043;}.cls-85{fill:#db5143;}.cls-86{fill:#dd5143;}.cls-87{fill:#de5243;}.cls-88{fill:#de5342;}.cls-89{fill:#df5342;}.cls-90{fill:#e05442;}.cls-91{fill:#e15442;}.cls-92{fill:#e25542;}.cls-93{fill:#e35642;}.cls-94{fill:#e45641;}.cls-95{fill:#e55741;}.cls-96{fill:#e65741;}.cls-97{fill:#e75841;}.cls-98{fill:#e85941;}.cls-99{fill:#e95941;}.cls-100{fill:#ea5a41;}.cls-101{fill:#ea5a40;}.cls-102{fill:#eb5b40;}.cls-103{fill:#ec5b40;}.cls-104{fill:#ed5c40;}.cls-105{fill:#ee5d40;}.cls-106{fill:#ef5d40;}.cls-107{fill:#ef5e40;}.cls-108{fill:#f05e3f;}.cls-109{fill:#f15f3f;}.cls-110{fill:#f25f3f;}.cls-111{fill:#f2603f;}.cls-112{fill:#f3603f;}.cls-113{fill:#f4613f;}.cls-114{fill:#f5613f;}.cls-115{fill:#f5623f;}.cls-116{fill:#f6623f;}.cls-117{fill:#f6623e;}.cls-118{fill:#f7623e;}.cls-119{fill:#f7633e;}.cls-120{fill:#f8633e;}.cls-121{fill:#f8643e;}.cls-122{fill:#f9643e;}.cls-123{fill:#fa643e;}.cls-124{fill:#fa653e;}.cls-125{fill:#fb653e;}.cls-126{fill:#fb663e;}.cls-127{fill:#fc663e;}.cls-128{fill:#fc663d;}.cls-129{fill:#fd663d;}.cls-130{fill:#fd673d;}.cls-131{fill:#fe673d;}.cls-132{fill:#fe683d;}.cls-133{fill:#ff683d;}.cls-134,.cls-142,.cls-143,.cls-145,.cls-148,.cls-150,.cls-151,.cls-152,.cls-153{mix-blend-mode:screen;}.cls-134{fill:url(#_ÂÁ_Ï_ÌÌ_È_ËÂÌÚ_4);}.cls-135{fill:url(#_ÂÁ_Ï_ÌÌ_È_ËÂÌÚ_91);}.cls-136{fill:url(#_ÂÁ_Ï_ÌÌ_È_ËÂÌÚ_62-3);}.cls-137{fill:#fff;}.cls-138{fill:#7d72b3;}.cls-139{fill:url(#_ÂÁ_Ï_ÌÌ_È_ËÂÌÚ_128);}.cls-140{fill:#ffc8a6;}.cls-141{fill:url(#_ÂÁ_Ï_ÌÌ_È_ËÂÌÚ_32-3);}.cls-142{fill:url(#_ÂÁ_Ï_ÌÌ_È_ËÂÌÚ_137);}.cls-143{fill:url(#_ÂÁ_Ï_ÌÌ_È_ËÂÌÚ_152);}.cls-144{opacity:0.5;fill:url(#_ÂÁ_Ï_ÌÌ_È_ËÂÌÚ_202-2);}.cls-145{fill:url(#_ÂÁ_Ï_ÌÌ_È_ËÂÌÚ_21);}.cls-146{opacity:0.3;fill:url(#_ÂÁ_Ï_ÌÌ_È_ËÂÌÚ_141);}.cls-147{fill:url(#_ÂÁ_Ï_ÌÌ_È_ËÂÌÚ_32-4);}.cls-148{fill:url(#_ÂÁ_Ï_ÌÌ_È_ËÂÌÚ_152-2);}.cls-149{fill:url(#_ÂÁ_Ï_ÌÌ_È_ËÂÌÚ_202-3);}.cls-150{fill:url(#_ÂÁ_Ï_ÌÌ_È_ËÂÌÚ_155);}.cls-151{fill:url(#_ÂÁ_Ï_ÌÌ_È_ËÂÌÚ_155-2);}.cls-152{fill:url(#_ÂÁ_Ï_ÌÌ_È_ËÂÌÚ_155-3);}.cls-153{fill:url(#_ÂÁ_Ï_ÌÌ_È_ËÂÌÚ_164);}.cls-154{mix-blend-mode:hard-light;opacity:0.71;fill:url(#_ÂÁ_Ï_ÌÌ_È_ËÂÌÚ_55);}</style><radialGradient id="_ÂÁ_Ï_ÌÌ_È_ËÂÌÚ_47" cx="6.71" cy="41.65" r="5.76" gradientUnits="userSpaceOnUse"><stop offset="0.01" stop-color="#f0e6db"/><stop offset="0.23" stop-color="#eee3d9"/><stop offset="0.42" stop-color="#e7d8d3"/><stop offset="0.59" stop-color="#dcc7c8"/><stop offset="0.76" stop-color="#cdaeb9"/><stop offset="0.82" stop-color="#c7a4b3"/><stop offset="0.86" stop-color="#cea4b4"/><stop offset="0.93" stop-color="#e1a3b8"/><stop offset="1" stop-color="#ffa2bd"/></radialGradient><radialGradient id="_ÂÁ_Ï_ÌÌ_È_ËÂÌÚ_62" cx="6.38" cy="38.81" r="4.5" gradientUnits="userSpaceOnUse"><stop offset="0.02" stop-color="#b85b77"/><stop offset="0.31" stop-color="#b55977"/><stop offset="0.54" stop-color="#ab5375"/><stop offset="0.74" stop-color="#9b4873"/><stop offset="0.93" stop-color="#833a6f"/><stop offset="1" stop-color="#79336e"/></radialGradient><radialGradient id="_ÂÁ_Ï_ÌÌ_È_ËÂÌÚ_143" cx="28.05" cy="20.47" r="54.38" gradientUnits="userSpaceOnUse"><stop offset="0.01" stop-color="#ffe360"/><stop offset="0.17" stop-color="#fee05f"/><stop offset="0.31" stop-color="#fcd55d"/><stop offset="0.44" stop-color="#f9c459"/><stop offset="0.56" stop-color="#f4ab53"/><stop offset="0.69" stop-color="#ee8b4c"/><stop offset="0.8" stop-color="#e66443"/><stop offset="0.82" stop-color="#e55e42"/><stop offset="0.84" stop-color="#e35d49"/><stop offset="0.88" stop-color="#df5a5c"/><stop offset="0.93" stop-color="#d7567c"/><stop offset="0.98" stop-color="#cc4fa7"/><stop offset="1" stop-color="#c74cbd"/></radialGradient><radialGradient id="_ÂÁ_Ï_ÌÌ_È_ËÂÌÚ_32" cx="15.3" cy="23.97" r="33.75" gradientUnits="userSpaceOnUse"><stop offset="0.01" stop-color="#9d4863"/><stop offset="0.24" stop-color="#9a4563"/><stop offset="0.42" stop-color="#903d61"/><stop offset="0.58" stop-color="#802e5f"/><stop offset="0.73" stop-color="#68195b"/><stop offset="0.87" stop-color="#4c0057"/><stop offset="0.98" stop-color="#4c0086"/></radialGradient><radialGradient id="_ÂÁ_Ï_ÌÌ_È_ËÂÌÚ_62-2" cx="20.01" cy="46.96" r="4.85" xlink:href="#_ÂÁ_Ï_ÌÌ_È_ËÂÌÚ_62"/><radialGradient id="_ÂÁ_Ï_ÌÌ_È_ËÂÌÚ_32-2" cx="55.05" cy="16.9" r="35.49" xlink:href="#_ÂÁ_Ï_ÌÌ_È_ËÂÌÚ_32"/><radialGradient id="_ÂÁ_Ï_ÌÌ_È_ËÂÌÚ_22" cx="5.25" cy="52.92" r="3.93" gradientUnits="userSpaceOnUse"><stop offset="0.01" stop-color="#9d4863"/><stop offset="0.38" stop-color="#9a4664"/><stop offset="0.66" stop-color="#904067"/><stop offset="0.92" stop-color="#80376c"/><stop offset="1" stop-color="#79336e"/></radialGradient><linearGradient id="_ÂÁ_Ï_ÌÌ_È_ËÂÌÚ_202" x1="12.94" y1="42.6" x2="25.61" y2="42.6" gradientUnits="userSpaceOnUse"><stop offset="0" stop-color="#ca528d"/><stop offset="1" stop-color="#b3757c"/></linearGradient><radialGradient id="_ÂÁ_Ï_ÌÌ_È_ËÂÌÚ_47-2" cx="16.95" cy="40.05" r="8.98" xlink:href="#_ÂÁ_Ï_ÌÌ_È_ËÂÌÚ_47"/><clipPath id="clip-path"><circle class="cls-1" cx="20.45" cy="42.9" r="3.5"/></clipPath><radialGradient id="_ÂÁ_Ï_ÌÌ_È_ËÂÌÚ_4" cx="20.5" cy="43.29" r="2.45" gradientUnits="userSpaceOnUse"><stop offset="0" stop-color="#ff4000"/><stop offset="0.25" stop-color="#fd3f00"/><stop offset="0.38" stop-color="#f53d00"/><stop offset="0.49" stop-color="#e73a00"/><stop offset="0.59" stop-color="#d33500"/><stop offset="0.68" stop-color="#ba2f00"/><stop offset="0.76" stop-color="#9b2700"/><stop offset="0.83" stop-color="#751d00"/><stop offset="0.9" stop-color="#4a1300"/><stop offset="0.97" stop-color="#1b0700"/><stop offset="1"/></radialGradient><radialGradient id="_ÂÁ_Ï_ÌÌ_È_ËÂÌÚ_91" cx="20.5" cy="43.23" r="2.1" gradientUnits="userSpaceOnUse"><stop offset="0.01" stop-color="#3b1400"/><stop offset="0.38" stop-color="#391203"/><stop offset="0.66" stop-color="#340d0d"/><stop offset="0.92" stop-color="#2b041d"/><stop offset="1" stop-color="#270024"/></radialGradient><radialGradient id="_ÂÁ_Ï_ÌÌ_È_ËÂÌÚ_62-3" cx="15.8" cy="38.01" r="8.75" xlink:href="#_ÂÁ_Ï_ÌÌ_È_ËÂÌÚ_62"/><radialGradient id="_ÂÁ_Ï_ÌÌ_È_ËÂÌÚ_128" cx="8.48" cy="59.73" r="6.01" gradientUnits="userSpaceOnUse"><stop offset="0.01" stop-color="#f29563"/><stop offset="0.43" stop-color="#f29262"/><stop offset="0.77" stop-color="#f3885d"/><stop offset="1" stop-color="#f47c57"/></radialGradient><radialGradient id="_ÂÁ_Ï_ÌÌ_È_ËÂÌÚ_32-3" cx="76.14" cy="23.93" r="12.79" xlink:href="#_ÂÁ_Ï_ÌÌ_È_ËÂÌÚ_32"/><linearGradient id="_ÂÁ_Ï_ÌÌ_È_ËÂÌÚ_137" x1="74.95" y1="29.02" x2="88.12" y2="29.02" gradientUnits="userSpaceOnUse"><stop offset="0" stop-color="#ff8386"/><stop offset="0.17" stop-color="#c56567"/><stop offset="0.4" stop-color="#804243"/><stop offset="0.6" stop-color="#492526"/><stop offset="0.78" stop-color="#211111"/><stop offset="0.92" stop-color="#090505"/><stop offset="1"/></linearGradient><linearGradient id="_ÂÁ_Ï_ÌÌ_È_ËÂÌÚ_152" x1="7.68" y1="55.23" x2="7.68" y2="16.34" gradientUnits="userSpaceOnUse"><stop offset="0.01" stop-color="#ca6648"/><stop offset="0.02" stop-color="#c56346"/><stop offset="0.29" stop-color="#80402d"/><stop offset="0.53" stop-color="#49251a"/><stop offset="0.74" stop-color="#21110c"/><stop offset="0.9" stop-color="#090503"/><stop offset="1"/></linearGradient><linearGradient id="_ÂÁ_Ï_ÌÌ_È_ËÂÌÚ_202-2" x1="18.96" y1="44.29" x2="18.96" y2="39.67" xlink:href="#_ÂÁ_Ï_ÌÌ_È_ËÂÌÚ_202"/><radialGradient id="_ÂÁ_Ï_ÌÌ_È_ËÂÌÚ_21" cx="19.28" cy="41.02" r="3.28" xlink:href="#_ÂÁ_Ï_ÌÌ_È_ËÂÌÚ_137"/><linearGradient id="_ÂÁ_Ï_ÌÌ_È_ËÂÌÚ_141" x1="9.88" y1="31.69" x2="73.97" y2="31.69" gradientUnits="userSpaceOnUse"><stop offset="0" stop-color="#ca528d"/><stop offset="1" stop-color="#8e7090"/></linearGradient><radialGradient id="_ÂÁ_Ï_ÌÌ_È_ËÂÌÚ_32-4" cx="42.88" cy="55.95" r="19.18" xlink:href="#_ÂÁ_Ï_ÌÌ_È_ËÂÌÚ_32"/><linearGradient id="_ÂÁ_Ï_ÌÌ_È_ËÂÌÚ_152-2" x1="35.7" y1="54.78" x2="40.66" y2="54.78" xlink:href="#_ÂÁ_Ï_ÌÌ_È_ËÂÌÚ_152"/><linearGradient id="_ÂÁ_Ï_ÌÌ_È_ËÂÌÚ_202-3" x1="40.78" y1="58.1" x2="66.84" y2="58.1" xlink:href="#_ÂÁ_Ï_ÌÌ_È_ËÂÌÚ_202"/><linearGradient id="_ÂÁ_Ï_ÌÌ_È_ËÂÌÚ_155" x1="34.63" y1="23.12" x2="34.63" y2="11.84" gradientUnits="userSpaceOnUse"><stop offset="0"/><stop offset="0.1" stop-color="#090503"/><stop offset="0.26" stop-color="#21110c"/><stop offset="0.47" stop-color="#49251a"/><stop offset="0.71" stop-color="#80402d"/><stop offset="0.98" stop-color="#c56346"/><stop offset="0.99" stop-color="#ca6648"/></linearGradient><linearGradient id="_ÂÁ_Ï_ÌÌ_È_ËÂÌÚ_155-2" x1="65.26" y1="21.62" x2="85.81" y2="21.62" xlink:href="#_ÂÁ_Ï_ÌÌ_È_ËÂÌÚ_155"/><linearGradient id="_ÂÁ_Ï_ÌÌ_È_ËÂÌÚ_155-3" x1="47.27" y1="60.56" x2="47.27" y2="56.68" xlink:href="#_ÂÁ_Ï_ÌÌ_È_ËÂÌÚ_155"/><linearGradient id="_ÂÁ_Ï_ÌÌ_È_ËÂÌÚ_164" x1="13.15" y1="7.66" x2="79.26" y2="7.66" gradientUnits="userSpaceOnUse"><stop offset="0"/><stop offset="0.08" stop-color="#090806"/><stop offset="0.22" stop-color="#211f17"/><stop offset="0.4" stop-color="#494333"/><stop offset="0.6" stop-color="#80765a"/><stop offset="0.82" stop-color="#c5b58a"/><stop offset="0.99" stop-color="#ffebb3"/></linearGradient><linearGradient id="_ÂÁ_Ï_ÌÌ_È_ËÂÌÚ_55" y1="31.38" x2="88.12" y2="31.38" gradientUnits="userSpaceOnUse"><stop offset="0" stop-color="#009be5"/><stop offset="0.23" stop-color="#0197e2"/><stop offset="0.44" stop-color="#038cda"/><stop offset="0.64" stop-color="#0779cc"/><stop offset="0.84" stop-color="#0d5fb9"/><stop offset="0.99" stop-color="#1345a6"/></linearGradient></defs><g class="cls-2"><g id="ocean"><path class="cls-3" d="M25.12,58.46s11.22,1.92,18.94-.85,8.34-4.92,8.34-4.92L36.7,51.53Z"/><path class="cls-4" d="M7.78,38s-2,3.73-1.72,7S8.17,49.3,8.17,49.3,7.92,40.85,7.78,38Z"/><path class="cls-5" d="M6,43.29H5.5a15.27,15.27,0,0,1,2.22-6.65L9.1,43.91S7,43,6,43.29Z"/><path class="cls-6" d="M88.12,16.12a27.71,27.71,0,0,0-5.62,7.93,11.4,11.4,0,0,1-5.85,5.8s1.92.51,3.39,5.44,1.46,6.62,1.46,6.62l-.08,0-.06,0c-.72-.52-4.08-3-7.37-5.18a0,0,0,0,1,0,0c-1.76-1.18-3.5-2.3-4.79-3-4-2.24-5.55-3-6.09-2.62s-.46,1.85.39,7.7a24.55,24.55,0,0,0,6.85,13.39c.69.7-9.24.62-20.86,2.54-2.57.42-6.18,1.06-10.26,1.77l-1.66.3L35.87,57,27,58.55l-3.55.63-3.68.66-1.67.3L9.88,61.61l-.47.09-.11,0c-3.41.6-5.69,1-6.05,1C1.77,62.9,0,60.24,0,60.24s.14-.39,1.75-.54c0,0-.31-3.32.46-4.48s3.93-1.38,5.39-3.69a6.56,6.56,0,0,0,.62-2.93c.2-3.92-.62-10.47-.62-16.16A32.77,32.77,0,0,1,11.48,17c.12-.18.23-.35.34-.49s.33-.4.33-.4a7.79,7.79,0,0,1,1-.8h0A81.38,81.38,0,0,1,25.42,8.6,94.73,94.73,0,0,1,48.86,1.26a93.05,93.05,0,0,1,30.4-.05,9.28,9.28,0,0,1,2.55.68c.13.34-7.09-1.13-15.37.18a33.23,33.23,0,0,0-3.27.66c-9.54,2.39-11,4.85-11.3,7.54s5,8.32,7.15,12,2,4,2.69,4.31c.27.12,1-.12,2.3-.69,2.07-.93,5.56-2.74,10.71-5.31C83,16.43,88.12,16.12,88.12,16.12Z"/><path class="cls-7" d="M39.21,56.38l-1.65.3-1.69.3L27,58.55l-3.55.63-3.68.66-1.67.3A33.11,33.11,0,0,1,11,54.07,15.2,15.2,0,0,1,8.22,48.6c.2-3.92-.62-10.47-.62-16.16,0-7.11,2.62-13.75,4.22-15.92.2-.26.33-.4.33-.4C13,15.26,18,12,25.42,8.6c0,0-5.58,5.06-4.89,9.14s5.85,8.93,8.62,15.93.7,18.86,3.54,20.87A11.83,11.83,0,0,0,39.21,56.38Z"/><path class="cls-8" d="M14.36,47.17s2.4,4.54,7.19,3.55,4.06-7.66,4.06-7.66Z"/><path class="cls-9" d="M55,53.81s-3.53-2.51-4.46-6.05,2.47-7.7,0-17.86S45.16,12.66,47,7,73.34.35,81.8,1.89c0,0-18.39-2.47-29.09,3.84-6.12,3.61,2.5,11.51,5.5,20.4S60.05,46.45,62,49.69s8.32,2.38,8.32,2.38S68.21,52.75,55,53.81Z"/><path class="cls-10" d="M4,54.1s3.29,2.59,4.68,2S7.6,51.53,7.6,51.53,7.1,53,4,54.1Z"/><path class="cls-11" d="M25.61,43.06c0,3.5-2.38,6.8-6.19,6.8-3.5,0-6.48-3.3-6.48-6.8s2.68-7.73,6.65-7.73C23.8,35.33,25.61,39.56,25.61,43.06Z"/><path class="cls-12" d="M25.12,43a6,6,0,0,1-12,0c0-3.31,2.53-7.31,6.29-7.31C23.4,35.71,25.12,39.71,25.12,43Z"/><g class="cls-13"><rect class="cls-14" x="16.96" y="39.4" width="6.99" height="6.99"/><path class="cls-14" d="M24.31,43.86a3.55,3.55,0,0,1-3.66,3.42,3.41,3.41,0,1,1,0-6.79A3.55,3.55,0,0,1,24.31,43.86Z"/><path class="cls-15" d="M24.28,43.86a3.52,3.52,0,0,1-3.63,3.4,3.39,3.39,0,1,1,0-6.75A3.51,3.51,0,0,1,24.28,43.86Z"/><path class="cls-16" d="M24.26,43.86a3.51,3.51,0,0,1-3.61,3.38,3.37,3.37,0,1,1,0-6.71A3.51,3.51,0,0,1,24.26,43.86Z"/><path class="cls-17" d="M24.24,43.86a3.49,3.49,0,0,1-3.59,3.36,3.35,3.35,0,1,1,0-6.67A3.49,3.49,0,0,1,24.24,43.86Z"/><path class="cls-18" d="M24.21,43.86a3.44,3.44,0,0,1-3.56,3.33,3.32,3.32,0,1,1,0-6.62A3.46,3.46,0,0,1,24.21,43.86Z"/><path class="cls-19" d="M24.19,43.86a3.43,3.43,0,0,1-3.54,3.31,3.3,3.3,0,1,1,0-6.58A3.44,3.44,0,0,1,24.19,43.86Z"/><path class="cls-20" d="M24.17,43.86a3.42,3.42,0,0,1-3.52,3.29,3.28,3.28,0,1,1,0-6.53A3.41,3.41,0,0,1,24.17,43.86Z"/><path class="cls-21" d="M24.14,43.86a3.38,3.38,0,0,1-3.49,3.27,3.26,3.26,0,1,1,0-6.49A3.37,3.37,0,0,1,24.14,43.86Z"/><path class="cls-22" d="M24.12,43.86a3.37,3.37,0,0,1-3.47,3.25,3.24,3.24,0,1,1,0-6.45A3.37,3.37,0,0,1,24.12,43.86Z"/><path class="cls-23" d="M24.1,43.86a3.35,3.35,0,0,1-3.45,3.23,3.22,3.22,0,1,1,0-6.41A3.36,3.36,0,0,1,24.1,43.86Z"/><path class="cls-24" d="M24.07,43.86a3.32,3.32,0,0,1-3.42,3.21,3.19,3.19,0,1,1,0-6.37A3.32,3.32,0,0,1,24.07,43.86Z"/><path class="cls-25" d="M24.05,43.86A3.3,3.3,0,0,1,20.65,47a3.17,3.17,0,1,1,0-6.32A3.3,3.3,0,0,1,24.05,43.86Z"/><path class="cls-26" d="M24,43.86A3.28,3.28,0,0,1,20.65,47a3.15,3.15,0,1,1,0-6.28A3.3,3.3,0,0,1,24,43.86Z"/><path class="cls-27" d="M24,43.86A3.25,3.25,0,0,1,20.65,47a3.13,3.13,0,1,1,0-6.24A3.26,3.26,0,0,1,24,43.86Z"/><path class="cls-28" d="M24,43.86A3.23,3.23,0,0,1,20.65,47a3.11,3.11,0,1,1,0-6.19A3.22,3.22,0,0,1,24,43.86Z"/><path class="cls-29" d="M24,43.86A3.21,3.21,0,0,1,20.65,47a3.09,3.09,0,1,1,0-6.15A3.21,3.21,0,0,1,24,43.86Z"/><path class="cls-30" d="M23.93,43.86a3.18,3.18,0,0,1-3.28,3.08,3.06,3.06,0,1,1,0-6.11A3.19,3.19,0,0,1,23.93,43.86Z"/><path class="cls-31" d="M23.91,43.86a3.18,3.18,0,0,1-3.26,3.06,3,3,0,1,1,0-6.07A3.16,3.16,0,0,1,23.91,43.86Z"/><path class="cls-32" d="M23.89,43.86a3.14,3.14,0,0,1-3.24,3,3,3,0,1,1,0-6A3.15,3.15,0,0,1,23.89,43.86Z"/><path class="cls-33" d="M23.87,43.86a3.12,3.12,0,0,1-3.22,3,3,3,0,1,1,0-6A3.14,3.14,0,0,1,23.87,43.86Z"/><path class="cls-34" d="M23.84,43.86a3.1,3.1,0,0,1-3.19,3,3,3,0,1,1,0-5.94A3.1,3.1,0,0,1,23.84,43.86Z"/><path class="cls-35" d="M23.82,43.86a3.08,3.08,0,0,1-3.17,3,3,3,0,1,1,0-5.89A3.07,3.07,0,0,1,23.82,43.86Z"/><path class="cls-36" d="M23.8,43.86a3.05,3.05,0,0,1-3.15,3,2.93,2.93,0,1,1,0-5.85A3.05,3.05,0,0,1,23.8,43.86Z"/><path class="cls-37" d="M23.77,43.86a3,3,0,0,1-3.12,2.93,2.91,2.91,0,1,1,0-5.81A3,3,0,0,1,23.77,43.86Z"/><path class="cls-38" d="M23.75,43.86a3,3,0,0,1-3.1,2.91,2.89,2.89,0,1,1,0-5.77A3,3,0,0,1,23.75,43.86Z"/><path class="cls-39" d="M23.73,43.86a3,3,0,0,1-3.08,2.89,2.87,2.87,0,1,1,0-5.73A3,3,0,0,1,23.73,43.86Z"/><path class="cls-40" d="M23.7,43.86a3,3,0,0,1-3.05,2.86,2.85,2.85,0,1,1,0-5.68A3,3,0,0,1,23.7,43.86Z"/><path class="cls-41" d="M23.68,43.86a2.94,2.94,0,0,1-3,2.84,2.83,2.83,0,1,1,0-5.64A2.94,2.94,0,0,1,23.68,43.86Z"/><path class="cls-42" d="M23.66,43.86a2.92,2.92,0,0,1-3,2.82,2.8,2.8,0,1,1,0-5.59A2.92,2.92,0,0,1,23.66,43.86Z"/><path class="cls-43" d="M23.63,43.86a2.89,2.89,0,0,1-3,2.8,2.78,2.78,0,1,1,0-5.55A2.89,2.89,0,0,1,23.63,43.86Z"/><path class="cls-44" d="M23.61,43.86a2.88,2.88,0,0,1-3,2.78,2.76,2.76,0,1,1,0-5.51A2.88,2.88,0,0,1,23.61,43.86Z"/><path class="cls-45" d="M23.59,43.86a2.86,2.86,0,0,1-2.94,2.76,2.74,2.74,0,1,1,0-5.47A2.86,2.86,0,0,1,23.59,43.86Z"/><path class="cls-46" d="M23.56,43.86a2.94,2.94,0,0,1-5.87,0,2.83,2.83,0,0,1,2.92-2.73A2.83,2.83,0,0,1,23.56,43.86Z"/><path class="cls-47" d="M23.54,43.86a2.81,2.81,0,0,1-2.9,2.71,2.7,2.7,0,1,1,0-5.38A2.81,2.81,0,0,1,23.54,43.86Z"/><path class="cls-48" d="M23.52,43.86a2.79,2.79,0,0,1-2.88,2.69,2.68,2.68,0,1,1,0-5.34A2.8,2.8,0,0,1,23.52,43.86Z"/><path class="cls-49" d="M23.49,43.86a2.75,2.75,0,0,1-2.85,2.67,2.65,2.65,0,1,1,0-5.29A2.75,2.75,0,0,1,23.49,43.86Z"/><path class="cls-50" d="M23.47,43.86a2.74,2.74,0,0,1-2.83,2.65,2.63,2.63,0,1,1,0-5.25A2.74,2.74,0,0,1,23.47,43.86Z"/><path class="cls-51" d="M23.45,43.86a2.83,2.83,0,0,1-5.65,0,2.72,2.72,0,0,1,2.81-2.62A2.71,2.71,0,0,1,23.45,43.86Z"/><path class="cls-52" d="M23.43,43.86a2.81,2.81,0,1,1-2.82-2.56A2.71,2.71,0,0,1,23.43,43.86Z"/><path class="cls-53" d="M23.4,43.86a2.78,2.78,0,1,1-2.79-2.54A2.68,2.68,0,0,1,23.4,43.86Z"/><path class="cls-54" d="M23.38,43.86a2.65,2.65,0,0,1-2.74,2.56,2.55,2.55,0,1,1,0-5.08A2.65,2.65,0,0,1,23.38,43.86Z"/><path class="cls-55" d="M23.36,43.86a2.74,2.74,0,1,1-2.75-2.5A2.63,2.63,0,0,1,23.36,43.86Z"/><path class="cls-56" d="M23.33,43.86a2.71,2.71,0,1,1-2.72-2.48A2.61,2.61,0,0,1,23.33,43.86Z"/><path class="cls-57" d="M23.31,43.86a2.69,2.69,0,1,1-2.7-2.45A2.59,2.59,0,0,1,23.31,43.86Z"/><path class="cls-58" d="M23.29,43.86a2.67,2.67,0,1,1-2.68-2.43A2.57,2.57,0,0,1,23.29,43.86Z"/><path class="cls-59" d="M23.26,43.86a2.64,2.64,0,1,1-2.65-2.41A2.54,2.54,0,0,1,23.26,43.86Z"/><path class="cls-60" d="M23.24,43.86a2.62,2.62,0,1,1-2.63-2.39A2.52,2.52,0,0,1,23.24,43.86Z"/><path class="cls-61" d="M23.22,43.86a2.6,2.6,0,1,1-2.61-2.37A2.51,2.51,0,0,1,23.22,43.86Z"/><path class="cls-62" d="M23.19,43.87a2.57,2.57,0,1,1-2.58-2.36A2.47,2.47,0,0,1,23.19,43.87Z"/><path class="cls-63" d="M23.17,43.87a2.55,2.55,0,1,1-2.56-2.34A2.45,2.45,0,0,1,23.17,43.87Z"/><path class="cls-64" d="M23.15,43.87a2.53,2.53,0,1,1-2.54-2.31A2.44,2.44,0,0,1,23.15,43.87Z"/><path class="cls-65" d="M23.12,43.87a2.5,2.5,0,1,1-2.51-2.29A2.4,2.4,0,0,1,23.12,43.87Z"/><path class="cls-66" d="M23.1,43.87a2.48,2.48,0,1,1-2.49-2.27A2.38,2.38,0,0,1,23.1,43.87Z"/><path class="cls-67" d="M23.08,43.87a2.46,2.46,0,1,1-2.47-2.25A2.36,2.36,0,0,1,23.08,43.87Z"/><path class="cls-68" d="M23.05,43.87a2.43,2.43,0,1,1-2.44-2.23A2.34,2.34,0,0,1,23.05,43.87Z"/><path class="cls-69" d="M23,43.87a2.41,2.41,0,1,1-2.42-2.21A2.32,2.32,0,0,1,23,43.87Z"/><path class="cls-70" d="M23,43.87a2.39,2.39,0,1,1-2.4-2.19A2.29,2.29,0,0,1,23,43.87Z"/><path class="cls-71" d="M23,43.87a2.37,2.37,0,1,1-2.38-2.16A2.29,2.29,0,0,1,23,43.87Z"/><path class="cls-72" d="M23,43.87a2.34,2.34,0,1,1-2.35-2.14A2.25,2.25,0,0,1,23,43.87Z"/><path class="cls-73" d="M22.94,43.87a2.32,2.32,0,1,1-2.33-2.12A2.23,2.23,0,0,1,22.94,43.87Z"/><path class="cls-74" d="M22.92,43.87a2.3,2.3,0,1,1-2.31-2.1A2.22,2.22,0,0,1,22.92,43.87Z"/><path class="cls-75" d="M22.89,43.87a2.27,2.27,0,1,1-2.28-2.08A2.19,2.19,0,0,1,22.89,43.87Z"/><path class="cls-76" d="M22.87,43.87a2.25,2.25,0,1,1-2.26-2.06A2.15,2.15,0,0,1,22.87,43.87Z"/><path class="cls-77" d="M22.85,43.87a2.23,2.23,0,1,1-2.24-2A2.14,2.14,0,0,1,22.85,43.87Z"/><path class="cls-78" d="M22.82,43.87a2.2,2.2,0,1,1-2.21-2A2.11,2.11,0,0,1,22.82,43.87Z"/><path class="cls-79" d="M22.8,43.87a2.18,2.18,0,1,1-2.19-2A2.09,2.09,0,0,1,22.8,43.87Z"/><path class="cls-80" d="M22.78,43.87a2.16,2.16,0,1,1-2.17-2A2.08,2.08,0,0,1,22.78,43.87Z"/><path class="cls-81" d="M22.75,43.87a2.13,2.13,0,1,1-2.14-1.95A2,2,0,0,1,22.75,43.87Z"/><path class="cls-82" d="M22.73,43.87a2.11,2.11,0,1,1-2.12-1.93A2,2,0,0,1,22.73,43.87Z"/><path class="cls-83" d="M22.71,43.87A2.09,2.09,0,1,1,20.61,42,2,2,0,0,1,22.71,43.87Z"/><path class="cls-84" d="M22.68,43.87a2.06,2.06,0,0,1-4.11,0,2.06,2.06,0,0,1,4.11,0Z"/><path class="cls-85" d="M22.66,43.87A2,2,0,1,1,20.61,42,2,2,0,0,1,22.66,43.87Z"/><path class="cls-86" d="M22.64,43.87a2,2,0,1,1-2-1.84A1.94,1.94,0,0,1,22.64,43.87Z"/><path class="cls-87" d="M22.61,43.87a2,2,0,1,1-2-1.82A1.91,1.91,0,0,1,22.61,43.87Z"/><path class="cls-88" d="M22.59,43.87a2,2,0,1,1-2-1.8A1.9,1.9,0,0,1,22.59,43.87Z"/><path class="cls-89" d="M22.57,43.87a2,2,0,1,1-2-1.78A1.88,1.88,0,0,1,22.57,43.87Z"/><path class="cls-90" d="M22.55,43.87a1.93,1.93,0,1,1-1.94-1.76A1.86,1.86,0,0,1,22.55,43.87Z"/><path class="cls-91" d="M22.52,43.87a1.9,1.9,0,0,1-3.79,0,1.9,1.9,0,0,1,3.79,0Z"/><path class="cls-92" d="M22.5,43.87a1.88,1.88,0,1,1-1.89-1.72A1.81,1.81,0,0,1,22.5,43.87Z"/><path class="cls-93" d="M22.48,43.87a1.79,1.79,0,0,1-1.84,1.72,1.71,1.71,0,1,1,1.84-1.72Z"/><path class="cls-94" d="M22.45,43.87a1.83,1.83,0,1,1-1.84-1.67A1.76,1.76,0,0,1,22.45,43.87Z"/><path class="cls-95" d="M22.43,43.87a1.81,1.81,0,1,1-1.82-1.65A1.74,1.74,0,0,1,22.43,43.87Z"/><path class="cls-96" d="M22.41,43.87a1.79,1.79,0,1,1-1.8-1.63A1.73,1.73,0,0,1,22.41,43.87Z"/><path class="cls-97" d="M22.38,43.87a1.76,1.76,0,1,1-1.77-1.61A1.69,1.69,0,0,1,22.38,43.87Z"/><path class="cls-97" d="M22.36,43.87a1.74,1.74,0,1,1-1.75-1.59A1.69,1.69,0,0,1,22.36,43.87Z"/><path class="cls-98" d="M22.34,43.87a1.72,1.72,0,1,1-1.73-1.57A1.65,1.65,0,0,1,22.34,43.87Z"/><path class="cls-99" d="M22.31,43.87a1.69,1.69,0,1,1-1.7-1.54A1.62,1.62,0,0,1,22.31,43.87Z"/><path class="cls-100" d="M22.29,43.87a1.67,1.67,0,1,1-1.68-1.52A1.6,1.6,0,0,1,22.29,43.87Z"/><path class="cls-101" d="M22.27,43.87a1.65,1.65,0,1,1-1.66-1.5A1.59,1.59,0,0,1,22.27,43.87Z"/><path class="cls-102" d="M22.24,43.87a1.62,1.62,0,1,1-1.62-1.48A1.56,1.56,0,0,1,22.24,43.87Z"/><path class="cls-103" d="M22.22,43.87a1.53,1.53,0,0,1-1.58,1.49A1.55,1.55,0,0,1,19,43.89a1.6,1.6,0,0,1,3.19,0Z"/><path class="cls-104" d="M22.2,43.87a1.58,1.58,0,1,1-1.58-1.44A1.52,1.52,0,0,1,22.2,43.87Z"/><path class="cls-104" d="M22.17,43.87a1.55,1.55,0,1,1-1.55-1.42A1.48,1.48,0,0,1,22.17,43.87Z"/><path class="cls-105" d="M22.15,43.87a1.53,1.53,0,1,1-1.53-1.39A1.46,1.46,0,0,1,22.15,43.87Z"/><path class="cls-106" d="M22.13,43.87a1.51,1.51,0,1,1-1.51-1.37A1.45,1.45,0,0,1,22.13,43.87Z"/><path class="cls-107" d="M22.11,43.87a1.48,1.48,0,0,1-3,0,1.42,1.42,0,0,1,1.47-1.37A1.43,1.43,0,0,1,22.11,43.87Z"/><path class="cls-108" d="M22.08,43.87a1.46,1.46,0,1,1-1.46-1.33A1.4,1.4,0,0,1,22.08,43.87Z"/><path class="cls-108" d="M22.06,43.87a1.44,1.44,0,1,1-1.44-1.31A1.39,1.39,0,0,1,22.06,43.87Z"/><path class="cls-109" d="M22,43.87a1.36,1.36,0,0,1-1.41,1.31,1.3,1.3,0,1,1,0-2.6A1.36,1.36,0,0,1,22,43.87Z"/><path class="cls-110" d="M22,43.87a1.39,1.39,0,1,1-1.39-1.27A1.33,1.33,0,0,1,22,43.87Z"/><path class="cls-111" d="M22,43.87a1.37,1.37,0,1,1-1.37-1.25A1.31,1.31,0,0,1,22,43.87Z"/><path class="cls-112" d="M22,43.87a1.3,1.3,0,0,1-1.34,1.25,1.24,1.24,0,1,1,0-2.47A1.29,1.29,0,0,1,22,43.87Z"/><path class="cls-112" d="M21.94,43.87a1.32,1.32,0,1,1-1.32-1.2A1.27,1.27,0,0,1,21.94,43.87Z"/><path class="cls-113" d="M21.92,43.87a1.3,1.3,0,0,1-2.59,0,1.3,1.3,0,0,1,2.59,0Z"/><path class="cls-113" d="M21.9,43.87a1.28,1.28,0,1,1-1.28-1.16A1.24,1.24,0,0,1,21.9,43.87Z"/><path class="cls-114" d="M21.87,43.87a1.25,1.25,0,1,1-1.25-1.14A1.21,1.21,0,0,1,21.87,43.87Z"/><path class="cls-115" d="M21.85,43.87a1.23,1.23,0,0,1-2.45,0,1.23,1.23,0,0,1,2.45,0Z"/><path class="cls-116" d="M21.83,43.87a1.21,1.21,0,0,1-2.41,0,1.21,1.21,0,0,1,2.41,0Z"/><path class="cls-117" d="M21.8,43.87a1.18,1.18,0,1,1-1.18-1.07A1.13,1.13,0,0,1,21.8,43.87Z"/><path class="cls-118" d="M21.78,43.88a1.16,1.16,0,1,1-1.16-1.06A1.11,1.11,0,0,1,21.78,43.88Z"/><path class="cls-119" d="M21.76,43.88a1.14,1.14,0,0,1-2.27,0,1.14,1.14,0,0,1,2.27,0Z"/><path class="cls-119" d="M21.73,43.88a1.11,1.11,0,1,1-1.11-1A1.06,1.06,0,0,1,21.73,43.88Z"/><path class="cls-120" d="M21.71,43.88a1.09,1.09,0,1,1-1.09-1A1,1,0,0,1,21.71,43.88Z"/><path class="cls-121" d="M21.69,43.88a1.07,1.07,0,0,1-2.13,0,1.07,1.07,0,0,1,2.13,0Z"/><path class="cls-122" d="M21.67,43.88a1,1,0,1,1-1.05-1A1,1,0,0,1,21.67,43.88Z"/><path class="cls-122" d="M21.64,43.88a1,1,0,1,1-1-.93A1,1,0,0,1,21.64,43.88Z"/><path class="cls-122" d="M21.62,43.88a1,1,0,1,1-1-.91A1,1,0,0,1,21.62,43.88Z"/><path class="cls-123" d="M21.6,43.88a1,1,0,0,1-1.94,0,.92.92,0,0,1,1-.9A.93.93,0,0,1,21.6,43.88Z"/><path class="cls-124" d="M21.57,43.88a.95.95,0,1,1-.95-.87A.91.91,0,0,1,21.57,43.88Z"/><path class="cls-124" d="M21.55,43.88a.93.93,0,1,1-.93-.85A.9.9,0,0,1,21.55,43.88Z"/><path class="cls-125" d="M21.53,43.88a.86.86,0,0,1-.9.83.85.85,0,0,1-.9-.82.86.86,0,0,1,.89-.84A.88.88,0,0,1,21.53,43.88Z"/><path class="cls-125" d="M21.5,43.88a.88.88,0,0,1-1.75,0,.88.88,0,0,1,1.75,0Z"/><path class="cls-125" d="M21.48,43.88a.86.86,0,1,1-.86-.79A.83.83,0,0,1,21.48,43.88Z"/><path class="cls-126" d="M21.46,43.88a.84.84,0,1,1-.84-.76A.8.8,0,0,1,21.46,43.88Z"/><path class="cls-127" d="M21.43,43.88a.81.81,0,1,1-.81-.74A.77.77,0,0,1,21.43,43.88Z"/><path class="cls-127" d="M21.41,43.88a.79.79,0,1,1-.79-.72A.77.77,0,0,1,21.41,43.88Z"/><path class="cls-128" d="M21.39,43.88a.77.77,0,1,1-.77-.7A.74.74,0,0,1,21.39,43.88Z"/><path class="cls-128" d="M21.36,43.88a.74.74,0,1,1-.74-.68A.71.71,0,0,1,21.36,43.88Z"/><path class="cls-129" d="M21.34,43.88a.72.72,0,0,1-1.43,0,.7.7,0,0,1,.71-.67A.69.69,0,0,1,21.34,43.88Z"/><path class="cls-130" d="M21.32,43.88a.7.7,0,0,1-1.39,0,.7.7,0,0,1,1.39,0Z"/><path class="cls-130" d="M21.29,43.88a.63.63,0,0,1-.66.62.64.64,0,0,1-.67-.61.67.67,0,0,1,1.33,0Z"/><path class="cls-130" d="M21.27,43.88a.65.65,0,1,1-.65-.59A.62.62,0,0,1,21.27,43.88Z"/><path class="cls-130" d="M21.25,43.88a.6.6,0,0,1-.62.58.61.61,0,0,1-.63-.57.63.63,0,0,1,1.25,0Z"/><path class="cls-131" d="M21.23,43.88a.59.59,0,0,1-.6.56.58.58,0,0,1-.6-.55.57.57,0,0,1,.59-.56A.59.59,0,0,1,21.23,43.88Z"/><path class="cls-131" d="M21.2,43.88a.58.58,0,0,1-1.15,0,.55.55,0,0,1,.57-.54A.56.56,0,0,1,21.2,43.88Z"/><path class="cls-131" d="M21.18,43.88a.53.53,0,0,1-.55.51.52.52,0,0,1-.56-.5.54.54,0,0,1,.55-.52A.54.54,0,0,1,21.18,43.88Z"/><path class="cls-131" d="M21.16,43.88a.51.51,0,0,1-.53.49.51.51,0,0,1-.53-.48.51.51,0,0,1,.52-.5A.53.53,0,0,1,21.16,43.88Z"/><path class="cls-131" d="M21.13,43.88a.51.51,0,1,1-.51-.46A.48.48,0,0,1,21.13,43.88Z"/><path class="cls-131" d="M21.11,43.88a.46.46,0,0,1-.48.45.45.45,0,1,1,0-.89A.46.46,0,0,1,21.11,43.88Z"/><path class="cls-132" d="M21.09,43.88a.45.45,0,0,1-.46.43.44.44,0,0,1-.46-.42.43.43,0,0,1,.45-.43A.45.45,0,0,1,21.09,43.88Z"/><path class="cls-132" d="M21.06,43.88a.44.44,0,0,1-.87,0,.42.42,0,0,1,.43-.41A.42.42,0,0,1,21.06,43.88Z"/><path class="cls-132" d="M21,43.88a.41.41,0,0,1-.41.39.39.39,0,1,1,.41-.39Z"/><path class="cls-133" d="M21,43.88a.38.38,0,0,1-.39.36.37.37,0,0,1-.4-.35.39.39,0,0,1,.39-.37A.38.38,0,0,1,21,43.88Z"/><path class="cls-133" d="M21,43.88a.35.35,0,0,1-.36.34.36.36,0,0,1-.37-.33.36.36,0,0,1,.36-.35A.35.35,0,0,1,21,43.88Z"/><path class="cls-133" d="M21,43.88a.33.33,0,0,1-.34.32.33.33,0,0,1-.35-.31.35.35,0,0,1,.69,0Z"/><path class="cls-133" d="M21,43.88a.31.31,0,0,1-.32.3.32.32,0,0,1-.33-.29.33.33,0,0,1,.65,0Z"/><path class="cls-133" d="M20.92,43.88a.3.3,0,1,1-.3-.27A.28.28,0,0,1,20.92,43.88Z"/><path class="cls-133" d="M20.9,43.88a.28.28,0,0,1-.55,0,.28.28,0,0,1,.55,0Z"/><path class="cls-133" d="M20.88,43.88a.26.26,0,0,1-.51,0,.26.26,0,0,1,.51,0Z"/><path class="cls-133" d="M20.85,43.88a.23.23,0,0,1-.45,0,.22.22,0,0,1,.22-.22A.22.22,0,0,1,20.85,43.88Z"/><path class="cls-133" d="M20.83,43.88a.19.19,0,0,1-.2.19.2.2,0,0,1-.21-.19.2.2,0,0,1,.2-.19A.2.2,0,0,1,20.83,43.88Z"/><path class="cls-133" d="M20.81,43.88a.17.17,0,0,1-.18.17.18.18,0,0,1-.19-.17.18.18,0,0,1,.18-.17A.18.18,0,0,1,20.81,43.88Z"/><path class="cls-133" d="M20.79,43.88a.16.16,0,0,1-.16.15.15.15,0,0,1-.16-.15.15.15,0,0,1,.15-.14A.16.16,0,0,1,20.79,43.88Z"/><path class="cls-133" d="M20.76,43.88a.13.13,0,0,1-.13.13.13.13,0,0,1-.14-.13.12.12,0,0,1,.13-.12A.13.13,0,0,1,20.76,43.88Z"/><path class="cls-133" d="M20.74,43.88a.11.11,0,0,1-.11.11.11.11,0,0,1-.12-.11.11.11,0,0,1,.11-.1C20.69,43.78,20.74,43.82,20.74,43.88Z"/><path class="cls-133" d="M20.72,43.88a.09.09,0,0,1-.18,0,.09.09,0,0,1,.09-.08A.1.1,0,0,1,20.72,43.88Z"/><path class="cls-133" d="M20.69,43.88a.07.07,0,0,1-.06.07.07.07,0,0,1-.07-.07.07.07,0,0,1,.07-.06A.06.06,0,0,1,20.69,43.88Z"/><path class="cls-133" d="M20.67,43.88a0,0,0,0,1,0,0s-.05,0-.05,0a0,0,0,0,1,.05,0A0,0,0,0,1,20.67,43.88Z"/></g><path class="cls-134" d="M22.78,42.9a2.33,2.33,0,1,1-2.33-2.32A2.33,2.33,0,0,1,22.78,42.9Z"/><circle class="cls-135" cx="20.45" cy="42.9" r="1.99"/><path class="cls-136" d="M25.12,39.91,25,41.2l-.17-.55A19.17,19.17,0,0,0,13.3,44.26l0,0H12.8s-.15-7.53,5.31-8.77S25.12,39.91,25.12,39.91Z"/><path class="cls-137" d="M18.13,44.9a.81.81,0,1,1-.81-.81A.8.8,0,0,1,18.13,44.9Z"/><path class="cls-138" d="M1.69,58.46A118.05,118.05,0,0,1,16.78,59.6l-15-.17Z"/><path class="cls-139" d="M1.73,59.43s11-.94,15.23.22c0,0-13.82,1.12-17,.59A2.82,2.82,0,0,1,1.73,59.43Z"/><path class="cls-140" d="M.63,60.32s4.47-.06,7-.07C7.6,60.25,5.1,61.35.63,60.32Z"/><path class="cls-141" d="M66.2,24.86s-.6,2.08,1.13,5,1.85,3.77,1.85,3.77l7.9,5.16s.3-1.78-2.24-7.38,3.08-12.27,3.08-12.27S68.76,22.89,66.2,24.86Z"/><path class="cls-142" d="M88.12,16.12a27.93,27.93,0,0,0-5.62,7.93,11.35,11.35,0,0,1-5.85,5.8s1.92.51,3.39,5.44,1.46,6.62,1.46,6.62a45.49,45.49,0,0,0-2.16-7.54C77.88,30.64,75,30.29,75,30.29s.06.7,3-1.76c2.35-2,2.81-4.48,4.66-7.56A14.74,14.74,0,0,1,88.12,16.12Z"/><path class="cls-143" d="M11.1,31.38c-.34,9.75,0,19-2,20.73-1.07,1-2.93,1.42-4.4,2a17.54,17.54,0,0,0-2.49,1.16c.77-1.16,3.93-1.39,5.39-3.7a6.6,6.6,0,0,0,.62-2.93c.2-3.92-.62-10.47-.62-16.16A32.74,32.74,0,0,1,11.48,17c.89-.63,1.59-.89,1.65-.46C13.29,17.65,11.45,21.63,11.1,31.38Z"/><path class="cls-144" d="M25.12,39.91,25,41.2l-.17-.55A19.17,19.17,0,0,0,13.3,44.26l-.5,0S18.52,38.44,25.12,39.91Z"/><path class="cls-145" d="M14.9,42.55a9.45,9.45,0,0,1,8.75-2.88A13.64,13.64,0,0,0,14.9,42.55Z"/><path class="cls-146" d="M70.34,52.07c.69.69-9.24.62-20.86,2.54-2.57.43-6.18,1.06-10.27,1.77l-1.65.3-1.69.3C33,57.48,30,58,27,58.55l-3.55.63-3.68.66-1.67.3L9.88,61.61A112.48,112.48,0,0,0,41.93,49.86c15.86-9,15-27.13,12.26-32C49,8.6,33,11.12,33.31,9.74S51.71.07,66.44,2.07a32.47,32.47,0,0,0-3.26.66c-9.55,2.39-11,4.85-11.31,7.54s5,8.32,7.15,12,2,4,2.69,4.31c.27.12,1-.12,2.29-.69a8,8,0,0,0,2.1,4.31A65.94,65.94,0,0,0,74,36.62c-1.76-1.18-3.49-2.3-4.79-3-4-2.24-5.54-3-6.08-2.62s-.46,1.85.39,7.7A24.52,24.52,0,0,0,70.34,52.07Z"/><path class="cls-147" d="M66.76,61.58c-.47.47-10.21-.27-19.36-1.85h0A74.55,74.55,0,0,1,35.87,57s-1.91-2,.52-3.17,4.27,1.31,4.27,1.31h0l.06,0h0a31.89,31.89,0,0,1,14.89.59C63.64,58,67.45,60.89,66.76,61.58Z"/><path class="cls-148" d="M35.77,55.84s-.53-1.36,1.31-2,3.58,1.27,3.58,1.27A6.3,6.3,0,0,0,35.77,55.84Z"/><path class="cls-149" d="M66.76,61.58c-.47.47-10.21-.27-19.36-1.85.64.08,11.88,1.57,12.47.52s-3.23-3.33-3.23-3.33c-7.1-3.16-14.83-2-15.86-1.82a31.89,31.89,0,0,1,14.89.59C63.64,58,67.45,60.89,66.76,61.58Z"/><path class="cls-150" d="M17,18.2c2.79-1.8,13.67-6.9,22.25-6.31S51.79,16.2,52.4,17.74,50.25,21.9,42.55,23s-12.34-4.33-16.9-3.86S15.73,19,17,18.2Z"/><path class="cls-137" d="M34,13.42c-.62-1.21,5.77-2.26,7.71-.45C42.59,13.78,35,15.37,34,13.42Z"/><path class="cls-137" d="M8.17,28.32c-.22,1.23-.26,1.89.32,2.58s1.06-2.31.75-3.27S8.24,27.91,8.17,28.32Z"/><path class="cls-137" d="M14.36,38.85c-.14,1.21,2.56-.56,2.6-1.56S14.51,37.64,14.36,38.85Z"/><path class="cls-151" d="M65.26,26.05a45.51,45.51,0,0,1,11.62-6.23,73.29,73.29,0,0,1,8.93-2.68,47.72,47.72,0,0,0-7,3.22C76,22.08,73.88,26.59,65.26,26.05Z"/><path class="cls-137" d="M77,20.39c-.3.89,2,0,2.2-.74S77.27,19.51,77,20.39Z"/><path class="cls-152" d="M37.56,56.68A110.61,110.61,0,0,0,57,60.38S48.53,61.8,37.56,56.68Z"/><path class="cls-153" d="M79.26,1.21l-.09.32C59.24-1.81,42.57,5.28,34.05,9.06s-20.58,6.2-20.9,6.26A81.38,81.38,0,0,1,25.42,8.6,94.73,94.73,0,0,1,48.86,1.26,93.05,93.05,0,0,1,79.26,1.21Z"/><path class="cls-154" d="M88.11,16.12h0s-3.81.24-10.21,3c-.08,0-9.14,3.78-11.7,5.74-.86.42-1.6.78-2.2,1h0a11.08,11.08,0,0,1-1.8.68.9.9,0,0,1-.49,0c-.68-.3-.53-.62-2.69-4.31-.22-.37-.48-.77-.75-1.19-2.43-3.62-6.68-8.4-6.4-10.82a1.5,1.5,0,0,1,0-.2c.33-2.42,1.75-4.65,9.33-6.82.61-.17,1.26-.35,2-.52l.37-.09c1-.23,1.95-.42,2.9-.57h0c8.28-1.31,15.5.16,15.37-.18a9.28,9.28,0,0,0-2.55-.68,93.05,93.05,0,0,0-30.4.05A94.73,94.73,0,0,0,25.42,8.6h0l-1,.48-.05,0-.86.4-.3.15-.79.38-.31.16-.77.38-.08,0-1.59.83-.19.1-.65.35-.29.16-.6.33-.26.15-.59.33,0,0-1.32.78,0,0-.53.32-.12.08-.5.31,0,0c-.52.34-1,.64-1.32.89h0l-.08.06-.06,0-.28.2-.14.11-.14.11-.12.11-.07.06a.93.93,0,0,0-.1.1s-.13.14-.33.4a5.2,5.2,0,0,0-.33.49h0c-.2.33-.42.72-.64,1.17a.2.2,0,0,0,0,.08c-.1.2-.2.4-.3.62l-.13.31c-.07.15-.13.3-.2.46s-.11.28-.17.43-.11.27-.16.41-.13.33-.19.5-.09.27-.14.41L9.33,22c-.05.14-.1.28-.14.43s-.12.38-.17.57-.09.31-.14.46-.1.4-.16.6l-.12.49c0,.2-.1.4-.14.61l-.12.54-.12.6c0,.19-.08.39-.11.59s-.07.39-.1.59l-.09.64c0,.19-.06.38-.08.58s0,.47-.08.7,0,.36,0,.54,0,.55,0,.82,0,.3,0,.45c0,.42,0,.85,0,1.28,0,1.37.05,2.78.12,4.2h0A15.27,15.27,0,0,0,5.5,43.29h.59a8.08,8.08,0,0,0,0,1.63c.31,3.2,2.07,4.36,2.11,4.38,0,.36-.08.7-.14,1a3.71,3.71,0,0,1-.43,1.25,5.31,5.31,0,0,1-1.69,1.62c-1.47.92-3.16,1.27-3.7,2.07a7,7,0,0,0-.52,3.24h0v0c0,.34,0,.64,0,.85v.08a3.05,3.05,0,0,0-1.57.66c-.13.08-.16.14-.16.15H0s1.78,2.66,3.25,2.51c.36,0,2.64-.43,6.05-1l.11,0,.47-.09,1.28-.22,1.21-.22,5.77-1,1.67-.3,3.68-.66.92-.16,2-.37A48.59,48.59,0,0,0,41,58.45c1,.23,2,.45,3.09.67a38.6,38.6,0,0,0,8.45,1.41c7.33,1,13.83,1.43,14.21,1,.69-.69-3.12-3.58-11.09-5.89a29.77,29.77,0,0,0-5.32-1l.37-.25q2.23-.34,4.35-.6c5-.4,8.37-.75,10.67-1,3.11-.24,4.91-.4,4.6-.71a24.55,24.55,0,0,1-6.85-13.39c-.85-5.85-.93-7.32-.39-7.7s1.67.19,4.53,1.76l1.55.86,7.9,5.16h0c2.08,1.45,3.79,2.7,4.28,3.05l.06,0,.08,0h0s0-1.69-1.46-6.62-3.39-5.44-3.39-5.44a11.72,11.72,0,0,0,4.87-4,9.74,9.74,0,0,0,1-1.78,27.93,27.93,0,0,1,5.62-7.93ZM8,43.52l.14,0c.1,1.91.16,3.64.09,5,0,.2,0,.38,0,.57a.28.28,0,0,0,0,.09C8.16,48.94,8.08,46.28,8,43.52Z"/></g></g></svg>