<svg xmlns="http://www.w3.org/2000/svg" xmlns:xlink="http://www.w3.org/1999/xlink" viewBox="0 0 344.43 353.51"><defs><style>.cls-1{fill:none;}.cls-2{isolation:isolate;}.cls-3{clip-path:url(#clip-path);}.cls-4{clip-path:url(#clip-path-2);}.cls-5{fill:url(#radial-gradient);}.cls-6{fill:#c8e9ee;}.cls-7{opacity:0.37;fill:url(#radial-gradient-2);}.cls-8{opacity:0.51;fill:url(#radial-gradient-3);}.cls-9{fill:#8ae0ed;}.cls-10{fill:#cff2f8;mix-blend-mode:screen;opacity:0.32;}.cls-11,.cls-13{fill:#fff;}.cls-12{mix-blend-mode:multiply;opacity:0.4;fill:url(#radial-gradient-4);}.cls-13{opacity:0.6;}</style><clipPath id="clip-path"><rect class="cls-1" x="0.05" y="-95.65" width="345.56" height="459.45"/></clipPath><clipPath id="clip-path-2"><path class="cls-1" d="M348.74,13.9V355.06H-1.74V20.22S20.25,28,58.81,18c39.83-10.29,77.69-2.49,103.46,4s40.36-2.44,64.56-4.89,60.35,12.23,80.07,5.71S348.74,13.9,348.74,13.9Z"/></clipPath><radialGradient id="radial-gradient" cx="178.26" cy="-26.45" r="408.19" gradientTransform="translate(-18.86 -12.49) scale(0.99 1.02)" gradientUnits="userSpaceOnUse"><stop offset="0" stop-color="#b1d4e8"/><stop offset="0.4" stop-color="#11bfda"/><stop offset="0.79" stop-color="#296cae" stop-opacity="0.7"/><stop offset="1" stop-color="#1f2061" stop-opacity="0"/></radialGradient><radialGradient id="radial-gradient-2" cx="195.24" cy="10.64" r="401.95" gradientTransform="translate(-18.86 2.91) scale(0.99 0.98)" gradientUnits="userSpaceOnUse"><stop offset="0.02" stop-color="#92e2ee"/><stop offset="0.4" stop-color="#11bfda"/><stop offset="0.79" stop-color="#296cae"/><stop offset="1" stop-color="#1f2061"/></radialGradient><radialGradient id="radial-gradient-3" cx="210.2" cy="24.07" r="251.23" xlink:href="#radial-gradient-2"/><radialGradient id="radial-gradient-4" cx="164.29" cy="55.52" r="80.71" gradientTransform="matrix(1, 0, 0, 1, 0, 0)" xlink:href="#radial-gradient-2"/></defs><g class="cls-2"><g id="Layer_1" data-name="Layer 1"><g class="cls-3"><g class="cls-4"><polygon class="cls-5" points="345.32 355.13 -11.77 355.13 -4.62 -28.27 352.46 -28.27 345.32 355.13"/></g><path class="cls-6" d="M103,9.55A33.17,33.17,0,0,0,95.22,9c-4.22.24-6.66,1-.13,1.36S105.26,10.23,103,9.55Z"/><path class="cls-7" d="M368.58,13.1c-5.43-7.36-12.22-10.18-24.07-10.32-13-.15-32.61,5.48-39.17,7-13.37,3-27.68,2.93-41.42.92-3.19-.47-21.19-5.12-41.58-2-14.34,2.16-28.46,5.21-42.81,7.13a101.2,101.2,0,0,1-21.3.83c-7.21-.56-14.35-2.32-21.42-3.78s-14.38-3.06-21.55-4.65c-6.85-1.51-13.59-2.94-20.63-3.23-5.06-.22-16.95.41-38.22,5-12.68,2.76-25.52,5.35-38.57,4.71a96.77,96.77,0,0,1-19-2.91C-8,10-14.58,7.63-21.37,5.85c-.55-.15-1.28.63-.71,1.05C-11.9,14.42.77,20.81,13.34,22.38c13.1,1.63,26.5.54,39.33-2.07,12.64-2.58,25.08-8.32,38.06-8.6A82.63,82.63,0,0,1,111,14.09q10.86,2.46,21.73,4.82c7.15,1.53,14.35,3.24,21.6,4.22a96,96,0,0,0,21.43.22c20.44-1.84,34.32-3.67,42.27-5.41,18.12-4,38.87,1.24,42.3,2.07,13.58,3.28,27.36.06,40.81-2.66,6.54-1.32,12.87-3,19.37-4.43,6.12-1.41,12.19-.89,18.47,0,4.31.6,10.37,3.69,14.6,4.73,3.65.89,7.28-3.92,9.39-1.08C365.64,20.21,371.43,17,368.58,13.1Z"/><path class="cls-8" d="M369.77,18.87C364.34,11.5,358.36,8.67,349.88,8c-21-1.77-29.79,3.11-42.75,6.21a114.15,114.15,0,0,1-42,2.25c-3.19-.47-21.19-5.12-41.58-2-14.34,2.17-28.46,5.21-42.8,7.13a101.3,101.3,0,0,1-21.31.84c-7.21-.57-14.35-2.33-21.42-3.79s-14.37-3.06-21.55-4.64c-6.85-1.52-13.59-2.94-20.63-3.24-12.91-.54-25.69,2.32-38.22,5-12.68,2.76-24.52,6-37.58,5.4-6.39-.31-13.8-2-20-3.6-6.81-1.73-13.42-4.12-20.21-5.9-.55-.14-1.28.63-.71,1.06A76.89,76.89,0,0,0,14.67,26.5c13.1,1.64,26.23-.28,39.05-2.89C66.37,21,79,17.76,91.93,17.47a82.61,82.61,0,0,1,20.23,2.39c7.24,1.63,14.48,3.25,21.73,4.81s14.35,3.25,21.6,4.23a96,96,0,0,0,21.43.22c14.18-1.28,28.15-4,42-7.07,18.13-4,38.21-.37,41.65.46,13.58,3.28,28.27.76,41.73-2,6.53-1.32,13-2.86,19.51-4.34,6.13-1.41,12.28-2.43,18.57-1.54,4.31.61,8.69,1.58,12.92,2.61,3.66.9,8.7,2.22,10.81,5.06C366.83,26,372.62,22.74,369.77,18.87Z"/><path class="cls-9" d="M371.22,20.42A75.78,75.78,0,0,0,315.1,15c-6.36,1.83-12.51,4.24-18.91,5.93A58.29,58.29,0,0,1,276,23.12c-6.89-.64-13.57-2.54-20.25-4.21a125,125,0,0,0-42-3.62c-7.36.7-14.59,1.74-22,2-7.21.22-14.43,0-21.63-.5a369.78,369.78,0,0,1-42.93-6c-26.64-5.06-53.41,1.79-79.41,7.54a99.43,99.43,0,0,1-24.57,2.42c-6.7-.3-27.48-2.67-30.91-7a50.36,50.36,0,0,0,.6,7.54C-1.58,24.91,5,25.35,11.61,26.43c6.1,1,11.88.63,18,0,13.49-1.38,26.53-6.57,39.74-9.4s27-6.93,40.49-6.33c10.41.46,23.37,6.25,41.83,8.91,14.39,2.08,23.25,3.95,37.79,3.28,7.28-.33,21-4.23,28.22-4.8a94.28,94.28,0,0,1,19.37,0c7,.77,17.14,4.6,23.9,6.36,6.38,1.66,10.09,3.27,16.68,3.82C291.1,29.4,304,23.75,316.54,20c17.49-5.19,37.12-6.67,53.39,1.32C373,22.82,373.9,21.81,371.22,20.42Z"/><path class="cls-10" d="M372.57,22.88a75.95,75.95,0,0,0-56.13-5.4c-6.35,1.83-12.5,4.24-18.9,5.93a58.29,58.29,0,0,1-20.21,2.17c-6.89-.64-13.57-2.54-20.25-4.21a125,125,0,0,0-42-3.62c-7.36.7-14.59,1.74-22,2-7.21.22-14.43,0-21.63-.5a369.78,369.78,0,0,1-42.93-6c-26.64-5.06-53.69.66-79.42,7.54C40.85,22.91,32.5,24.79,24,25.22A70.62,70.62,0,0,1-5.47,20c-.24-.09-.54.29-.29.46a47.37,47.37,0,0,0,18.33,7.4A70.28,70.28,0,0,0,31,28.17c13.49-1.38,26.5-5.85,39.71-8.68s27-6.93,40.49-6.33c10.41.46,23.37,6.25,41.83,8.91,14.39,2.08,23.25,3.95,37.79,3.28,7.28-.33,21-4.23,28.22-4.8a94.28,94.28,0,0,1,19.37,0c7,.77,17.14,4.6,23.9,6.35,6.38,1.67,10.09,3.28,16.68,3.83,13.45,1.13,26.31-4.52,38.89-8.25,17.49-5.19,37.12-6.67,53.39,1.32C374.3,25.28,375.25,24.27,372.57,22.88Z"/><path class="cls-6" d="M134.59,14.25s45.28,8.57,77.16,2.66C211.75,16.91,169.74,28.73,134.59,14.25Z"/><path class="cls-6" d="M252.56,20.23s31.5,11.31,59.65-1.55C312.21,18.68,285,35.31,252.56,20.23Z"/><path class="cls-6" d="M5.22,22.67s17,5.77,35.31-.66S93,6.71,115.6,11.59c0,0-24.13-2.22-43.57,3.77S27.12,31.1,5.22,22.67Z"/><path class="cls-11" d="M372.25,21c-8.27-4.88-28.6-12.42-66.58,1.77s-53.62-11.31-93.84-2.88c-34.15,7.15-51.61.07-81.78-5.54-39.32-7.32-66.87,5-91.9,10.56S-3.33,21.68-3.33,21.68v5s16,5.91,41.93,0S92.67,8.08,130.65,15.18s47.22,11.82,78.5,5.76,48.26,5.92,69.56,7.69,26.81-4.73,39-7.83,31.13-7.4,54.52,3.69Z"/><path class="cls-12" d="M126.19,13s28.17,5.38,34.07,5.19c15-.48,26.33,5.32,45.66,2.66,0,0-11.12,4.59-38.66,1.93C145.07,20.6,140.33,15.86,126.19,13Z"/><path class="cls-11" d="M372.25,21c-8.27-4.88-28.6-12.42-66.58,1.77s-53.62-11.31-93.84-2.88c-34.15,7.15-51.61.07-81.78-5.54-39.32-7.32-66.87,5-91.9,10.56S-3.33,21.68-3.33,21.68v5s16,5.91,41.93,0S92.67,8.08,130.65,15.18s47.22,11.82,78.5,5.76,48.26,5.92,69.56,7.69,26.81-4.73,39-7.83,31.13-7.4,54.52,3.69Z"/><path class="cls-13" d="M219,19.56a81.18,81.18,0,0,0-9.82,1.38c-31.28,6.06-40.52,1.33-78.5-5.76a122.31,122.31,0,0,0-13.8-1.79s18.4,3.19,31.09,9,33.35,9.74,46.38,5.8c19.21-5.8,40.59-11.23,60.88-4.35C255.2,23.83,240.4,18.11,219,19.56Z"/><path class="cls-13" d="M71.08,21a60.23,60.23,0,0,0-6.76,2.76c-21.22,10-28.67,8.25-57,10A88.58,88.58,0,0,0-2.89,35s13.7-1,23.8.81,25.55.94,34.14-4.22C67.71,24,82,16.25,97.71,17.5,97.71,17.5,86.11,16.08,71.08,21Z"/></g></g></g></svg>