<svg xmlns="http://www.w3.org/2000/svg" width="276.725" height="227.277" viewBox="0 0 276.725 227.277"><defs><style>.a,.j{fill:#161616;}.b{fill:#e17726;stroke:#e17726;}.b,.c,.d,.e,.f,.g,.h,.i,.j,.k{stroke-linecap:round;stroke-linejoin:round;}.c{fill:#e27625;stroke:#e27625;}.d{fill:#d5bfb2;stroke:#d5bfb2;}.e{fill:#233447;stroke:#233447;}.f{fill:#cc6228;stroke:#cc6228;}.g{fill:#e27525;stroke:#e27525;}.h{fill:#f5841f;stroke:#f5841f;}.i{fill:#c0ac9d;stroke:#c0ac9d;}.j{stroke:#161616;}.k{fill:#763e1a;stroke:#763e1a;}</style></defs><g transform="translate(-144.29 -116.05)"><path class="a" d="M507.617,443.195c-1.968-1.31-4.166-2.26-6.246-3.409a25.966,25.966,0,0,1-3.942-2.378,3.981,3.981,0,0,1,.509-6.252c2.968-1.993,7.9-.863,8.413,3.191a.168.168,0,0,0,.168.155H511a.18.18,0,0,0,.18-.2,8.909,8.909,0,0,0-3.278-6.618,10.517,10.517,0,0,0-6.37-2.185c-11.877,0-12.957,12.572-6.569,16.54.745.459,7.01,3.607,9.226,4.967a4.565,4.565,0,0,1,1.95,5.873,5.77,5.77,0,0,1-5.42,2.93,5.355,5.355,0,0,1-5.085-3.589,6.574,6.574,0,0,1-.174-1.422.18.18,0,0,0-.18-.168H490.4a.186.186,0,0,0-.18.186c0,3.526.882,5.476,3.253,7.258a11.728,11.728,0,0,0,7.233,2.384c6.637,0,10.1-3.762,10.784-7.661S511.05,445.467,507.617,443.195Z" transform="translate(-131.155 -117.135)"/><path class="a" d="M165.07,426.47h-4.5a.168.168,0,0,0-.168.124l-4.011,13.168a.174.174,0,0,1-.335,0l-4-13.168a.18.18,0,0,0-.174-.124H144.47a.18.18,0,0,0-.18.174v33.644a.18.18,0,0,0,.18.18h4.88a.174.174,0,0,0,.174-.18V434.727a.18.18,0,0,1,.348-.05l4.036,13.255.279.925a.18.18,0,0,0,.174.124h3.725a.18.18,0,0,0,.174-.124l.279-.925,4.036-13.255a.18.18,0,0,1,.348.05v25.561a.174.174,0,0,0,.174.18h4.88a.18.18,0,0,0,.18-.18V426.644a.18.18,0,0,0-.18-.174Z" transform="translate(0 -117.503)"/><path class="a" d="M388.213,426.47a.18.18,0,0,0-.168.124l-4,13.168a.18.18,0,0,1-.341,0l-4-13.168a.174.174,0,0,0-.168-.124H372.12a.18.18,0,0,0-.18.174v33.645a.18.18,0,0,0,.18.18H377a.18.18,0,0,0,.174-.18V434.727a.18.18,0,0,1,.348-.05l4.036,13.255.279.925a.18.18,0,0,0,.168.124h3.725a.168.168,0,0,0,.168-.124l.286-.925,4.029-13.255a.18.18,0,0,1,.348.05v25.561a.18.18,0,0,0,.18.18h4.88a.18.18,0,0,0,.174-.18V426.644a.18.18,0,0,0-.174-.174Z" transform="translate(-86.311 -117.503)"/><path class="a" d="M282.862,426.47H259.89a.18.18,0,0,0-.18.174v4.209a.18.18,0,0,0,.18.174h8.9v29.261a.18.18,0,0,0,.18.18h4.88a.18.18,0,0,0,.174-.18V431.027h8.841a.18.18,0,0,0,.18-.174v-4.209A.18.18,0,0,0,282.862,426.47Z" transform="translate(-43.76 -117.503)"/><path class="a" d="M330.828,460.4h4.433a.174.174,0,0,0,.168-.224L326.3,426.42a.18.18,0,0,0-.174-.13h-6.37a.18.18,0,0,0-.174.13l-9.158,33.756a.18.18,0,0,0,.174.224h4.433a.18.18,0,0,0,.168-.137l2.664-9.81a.174.174,0,0,1,.168-.13h9.8a.18.18,0,0,1,.168.13l2.651,9.8A.174.174,0,0,0,330.828,460.4Zm-11.635-14.857,3.564-13.144a.18.18,0,0,1,.341,0l3.564,13.144a.174.174,0,0,1-.168.224h-7.127a.18.18,0,0,1-.174-.223Z" transform="translate(-62.987 -117.434)"/><path class="a" d="M452.538,460.4h4.427a.18.18,0,0,0,.174-.223l-9.158-33.756a.174.174,0,0,0-.174-.13h-6.345a.18.18,0,0,0-.174.13l-9.151,33.756a.18.18,0,0,0,.168.224h4.433a.174.174,0,0,0,.168-.137l2.663-9.81a.18.18,0,0,1,.174-.13h9.791a.174.174,0,0,1,.168.13l2.664,9.81a.18.18,0,0,0,.174.137ZM440.9,445.543l3.564-13.144a.18.18,0,0,1,.341,0l3.564,13.144a.18.18,0,0,1-.174.224h-7.128a.174.174,0,0,1-.168-.224Z" transform="translate(-109.132 -117.434)"/><path class="a" d="M211.264,455.5V445.052a.168.168,0,0,1,.174-.174H224.4a.18.18,0,0,0,.174-.18v-4.2a.18.18,0,0,0-.174-.18H211.438a.174.174,0,0,1-.174-.174v-8.934a.174.174,0,0,1,.174-.18h14.752a.18.18,0,0,0,.18-.174v-4.209a.18.18,0,0,0-.18-.174H206.2a.174.174,0,0,0-.174.174v33.645a.174.174,0,0,0,.174.18h20.619a.18.18,0,0,0,.18-.18v-4.439a.18.18,0,0,0-.18-.18H211.438a.168.168,0,0,1-.174-.174Z" transform="translate(-23.408 -117.503)"/><path class="a" d="M573.7,460.164l-16.85-17.415a.174.174,0,0,1,0-.248l15.155-15.7a.174.174,0,0,0-.124-.3h-6.2a.18.18,0,0,0-.13.056l-12.864,13.355a.18.18,0,0,1-.31-.124V426.644a.174.174,0,0,0-.174-.174h-4.88a.18.18,0,0,0-.18.174v33.645a.18.18,0,0,0,.18.18h4.88a.174.174,0,0,0,.174-.18V445.481a.18.18,0,0,1,.3-.124l14.572,15.056a.18.18,0,0,0,.124.056h6.209a.18.18,0,0,0,.118-.3Z" transform="translate(-152.736 -117.503)"/><path class="b" d="M445.412,116.55,382.63,163.127l11.66-27.479Z" transform="translate(-90.364)"/><path class="c" d="M250.55,116.55l62.21,47.018-11.089-27.92Z" transform="translate(-40.287)"/><path class="c" d="M437.2,290.46l-16.7,25.592,35.737,9.828,10.213-34.855Z" transform="translate(-104.722 -65.936)"/><path class="c" d="M239.89,291.025l10.151,34.855,35.737-9.828L269.139,290.46Z" transform="translate(-36.246 -65.936)"/><path class="c" d="M304.569,207.684l-9.959,15.068,35.426,1.577-1.2-38.14Z" transform="translate(-56.992 -26.403)"/><path class="c" d="M408.1,207.415,383.45,185.48l-.82,38.58,35.426-1.577Z" transform="translate(-90.364 -26.134)"/><path class="c" d="M313.8,316.552l21.37-10.406L316.762,291.78Z" transform="translate(-64.268 -66.436)"/><path class="c" d="M386.08,306.147l21.37,10.406-2.962-24.772Z" transform="translate(-91.672 -66.436)"/><path class="d" d="M407.45,325.326,386.08,314.92l1.7,13.932-.186,5.861Z" transform="translate(-91.672 -75.21)"/><path class="d" d="M313.8,325.326l19.855,9.387-.124-5.861,1.639-13.932Z" transform="translate(-64.268 -75.21)"/><path class="e" d="M335.535,270.254l-17.775-5.228L330.3,259.29Z" transform="translate(-65.769 -54.118)"/><path class="e" d="M387.91,270.254l5.234-10.964,12.6,5.737Z" transform="translate(-92.366 -54.118)"/><path class="f" d="M303.639,316.052l3.086-25.592L287,291.025Z" transform="translate(-54.107 -65.936)"/><path class="f" d="M415.53,290.46l3.086,25.592,16.7-25.027Z" transform="translate(-102.837 -65.936)"/><path class="f" d="M418.056,245.08l-35.426,1.577,3.278,18.21,5.234-10.964,12.6,5.737Z" transform="translate(-90.364 -48.731)"/><path class="f" d="M308.983,259.639l12.541-5.737,5.234,10.964,3.278-18.21L294.61,245.08Z" transform="translate(-56.992 -48.731)"/><path class="g" d="M294.61,245.08l14.876,28.994-.5-14.435Z" transform="translate(-56.992 -48.731)"/><path class="g" d="M416.3,259.639l-.565,14.435,14.876-28.994Z" transform="translate(-102.913 -48.731)"/><path class="g" d="M349.668,247.62l-3.278,18.21,4.16,21.494.882-28.3Z" transform="translate(-76.624 -49.694)"/><path class="g" d="M381.591,247.62l-1.7,11.343.82,28.361,4.16-21.494Z" transform="translate(-89.325 -49.694)"/><path class="h" d="M385.37,273.758l-4.16,21.494,3.024,2.08,18.409-14.367.565-14.435Z" transform="translate(-89.825 -57.621)"/><path class="h" d="M317.76,268.53l.5,14.435,18.409,14.367,3.024-2.08-4.16-21.494Z" transform="translate(-65.769 -57.621)"/><path class="i" d="M360.191,341.067l.186-5.861-1.571-1.385H335.04l-1.509,1.385.124,5.861L313.8,331.68l6.935,5.668,14.118,9.772h24.139l14.118-9.772,6.935-5.668Z" transform="translate(-64.268 -81.564)"/><path class="j" d="M370.725,313.65l-3.024-2.08H350.243l-3.024,2.08-1.639,13.932,1.509-1.385h23.767l1.571,1.385Z" transform="translate(-76.317 -73.94)"/><path class="k" d="M449.364,166.157l5.3-25.716L446.72,116.55l-60.64,45.006,23.326,19.725,32.962,9.648,7.252-8.512-3.154-2.266,5.041-4.607-3.843-3.024,5.041-3.843Z" transform="translate(-91.672)"/><path class="k" d="M237.76,140.441l5.358,25.716-3.4,2.521,5.041,3.843-3.843,3.024,5.041,4.607-3.154,2.266,7.252,8.512,32.962-9.648,23.326-19.725L245.7,116.55Z" transform="translate(-35.438)"/><path class="h" d="M453.609,230.458l-32.962-9.648,9.959,15.068L415.73,264.873l19.663-.255h29.249Z" transform="translate(-102.913 -39.529)"/><path class="h" d="M283.822,220.81l-32.962,9.648-10.971,34.16h29.249l19.6.255-14.876-28.994Z" transform="translate(-36.246 -39.529)"/><path class="h" d="M363.772,209.589l2.142-36.37,9.518-25.909H332.89l9.518,25.909,2.142,36.37.82,11.467.062,28.237H362.89l.062-28.237Z" transform="translate(-71.505 -11.662)"/></g></svg>