<svg width="244" height="217" viewBox="0 0 244 217" fill="none" xmlns="http://www.w3.org/2000/svg">
<path style="mix-blend-mode:multiply" opacity="0.5" fill-rule="evenodd" clip-rule="evenodd" d="M22.6406 211.964C32.0597 214.081 41.6213 215.503 51.2485 216.221C69.5525 217.821 79.8565 215.597 80.0485 214.092C80.2405 212.588 77.6325 210.892 61.6645 207.932C45.6965 204.971 22.6406 211.964 22.6406 211.964Z" fill="url(#paint0_linear)"/>
<path fill-rule="evenodd" clip-rule="evenodd" d="M65.5671 210.716C63.7431 213.484 25.5672 214.061 22.6392 211.964C21.0392 210.796 24.8471 207.868 28.4951 205.563C31.3111 203.739 34.0312 202.363 34.0312 202.363C34.0312 202.363 42.5432 199.338 47.5352 199.947C52.5272 200.555 62.8312 204.747 62.8312 204.747C63.5192 205.195 67.2471 208.156 65.5671 210.716Z" fill="url(#paint1_linear)"/>
<path style="mix-blend-mode:multiply" opacity="0.5" fill-rule="evenodd" clip-rule="evenodd" d="M2.40039 152.789C2.40039 152.789 5.13641 154.533 19.1204 155.781C33.1044 157.029 43.6804 155.557 43.8404 154.405C44.0004 153.253 41.9844 152.02 29.7764 149.7C17.5684 147.38 2.40039 152.789 2.40039 152.789Z" fill="url(#paint2_linear)"/>
<path fill-rule="evenodd" clip-rule="evenodd" d="M30.496 151.3L17.6 154.501C17.6 154.501 0.879999 155.253 0 151.3C0 151.3 1.02399 138.419 5.88798 136.194C9.63198 134.482 16.432 144.595 21.568 146.772C24.6384 148.087 27.6206 149.6 30.496 151.3V151.3Z" fill="url(#paint3_linear)"/>
<path style="mix-blend-mode:multiply" opacity="0.5" fill-rule="evenodd" clip-rule="evenodd" d="M173.809 188.057C173.809 188.057 177.777 193.065 198.945 194.874C220.113 196.682 241.425 195.722 243.249 194.874C245.073 194.026 222.193 184.808 222.193 184.808L173.809 188.057Z" fill="url(#paint4_linear)"/>
<path fill-rule="evenodd" clip-rule="evenodd" d="M173.808 188.057C175.984 191.369 221.616 192.041 225.008 189.561C227.888 187.465 216.08 180.568 212.464 178.567L211.984 178.311L211.424 177.991C211.424 177.991 201.264 174.375 195.328 175.095C189.392 175.815 177.088 180.872 177.088 180.872C177.088 180.872 171.632 184.728 173.808 188.057Z" fill="url(#paint5_linear)"/>
<path fill-rule="evenodd" clip-rule="evenodd" d="M123.519 199.323C123.519 199.323 120.223 178.52 133.407 190.361L138.559 199.323H123.519Z" fill="url(#paint6_linear)"/>
<path style="mix-blend-mode:multiply" opacity="0.5" fill-rule="evenodd" clip-rule="evenodd" d="M123.52 199.322C123.52 199.322 140.848 203.195 147.52 202.907C154.192 202.619 138.56 199.322 138.56 199.322H123.52Z" fill="url(#paint7_linear)"/>
<path style="mix-blend-mode:multiply" opacity="0.5" fill-rule="evenodd" clip-rule="evenodd" d="M23.2781 107.14C23.2781 107.14 25.3535 125.571 103.827 132.779C182.301 139.988 241.65 131.486 242.547 124.832C243.445 118.178 232.132 111.061 163.625 97.6611C89.6682 78.2949 23.2781 107.14 23.2781 107.14Z" fill="url(#paint8_linear)"/>
<g clip-path="url(#clip0)">
<path fill-rule="evenodd" clip-rule="evenodd" d="M23.6886 110.905C23.6886 110.905 14.1796 104.261 11.4026 82.8983H216.843C216.843 82.8983 217.067 95.5139 197.376 116.54C197.376 116.54 172.131 130.024 107.783 127.95C42.0335 125.875 23.6886 110.905 23.6886 110.905Z" fill="#3432CB"/>
<path fill-rule="evenodd" clip-rule="evenodd" d="M11.4062 82.8983C9.07799 75.4691 48.2642 61.8163 110.704 61.8163C170.255 61.8163 214.294 75.8336 216.846 82.8983C219.399 89.963 178.305 107.008 110.704 107.008C43.1029 107.008 14.099 91.5329 11.4062 82.8983Z" fill="#4077F7"/>
<path fill-rule="evenodd" clip-rule="evenodd" d="M23.2695 78.2164C23.2695 78.2164 5.76617 45.3599 10.9555 21.11H216.395C216.395 21.11 216.395 61.1154 196.957 83.9075C196.957 83.9075 171.711 97.364 107.364 95.2895C41.5863 93.1589 23.2695 78.2164 23.2695 78.2164Z" fill="url(#paint9_linear)"/>
<path fill-rule="evenodd" clip-rule="evenodd" d="M10.9556 21.11C8.65548 13.6809 47.8136 0 110.282 0C169.888 0 213.871 14.0173 216.396 21.11C218.92 28.2028 177.714 45.1917 110.282 45.1917C42.8487 45.1917 13.6484 29.7166 10.9556 21.11Z" fill="#B4958D"/>
<path fill-rule="evenodd" clip-rule="evenodd" d="M189.946 22.5957C189.971 22.8448 189.932 23.0962 189.834 23.3265C189.736 23.5569 189.582 23.7587 189.385 23.9134C182.933 30.3613 125.037 41.2667 87.3658 38.239H86.6646C73.3662 37.4328 60.1969 35.167 47.3942 31.4827C38.9791 28.6792 34.6033 25.7076 33.3691 23.0723C33.084 22.5101 32.9764 21.8747 33.0605 21.2501C33.8179 15.9235 99.0347 10.4287 131.236 15.4189C144.644 17.5215 148.684 20.0446 146.552 22.4275C144.925 24.2498 139.483 25.9318 131.91 27.1654C125.164 28.1851 118.364 28.803 111.545 29.0156C104.897 29.2399 99.203 29.2119 94.4064 29.0156C87.2334 28.92 80.0967 27.979 73.1443 26.2122C72.0784 25.9038 71.6016 25.7076 71.6016 25.7076C71.6016 25.7076 76.5945 18.2223 84.6169 20.7174C92.6393 23.2125 94.6589 26.9972 94.6589 26.9972C94.6589 26.9972 127.506 28.1185 134.63 23.661C135.093 23.4257 135.482 23.0667 135.752 22.6238C139.203 17.0169 42.4854 14.2134 42.233 24.2217C42.2276 24.6993 42.3643 25.1676 42.6257 25.5674C47.815 34.9029 109.301 41.6873 149.217 29.7445C155.5 27.8662 158.838 25.8197 159.735 23.6891C163.55 14.9984 125.71 5.60679 79.0629 6.16748H78.4458C60.1176 6.34135 41.8411 8.14265 23.832 11.5501L33.2008 8.57845C33.2008 8.57845 55.0519 2.27068 103.326 4.09293C151.601 5.91517 188.431 16.5122 189.946 22.5957Z" fill="#4C95C7"/>
<path fill-rule="evenodd" clip-rule="evenodd" d="M94.4067 28.9595C87.2337 28.8638 80.097 27.9228 73.1446 26.156C74.5702 24.6106 76.4018 23.4968 78.4303 22.9416C80.4588 22.3864 82.6026 22.4122 84.6171 23.0161C88.4476 23.862 91.89 25.9519 94.4067 28.9595V28.9595Z" fill="#00FFED"/>
<path fill-rule="evenodd" clip-rule="evenodd" d="M135.752 24.9506C136.032 24.474 135.752 24.0255 134.63 23.633C135.093 23.3977 135.481 23.0386 135.752 22.5957C139.202 16.9888 42.4849 14.1854 42.2324 24.1937C42.2271 24.6712 42.3638 25.1396 42.6251 25.5394C42.3805 25.8087 42.2411 26.157 42.2324 26.5206C42.2324 28.2587 44.0837 29.9127 47.4778 31.4266C39.0627 28.6232 34.6869 25.6515 33.4527 23.0162C38.3054 17.8579 100.212 12.8677 131.208 17.6897C140.212 19.0914 144.98 20.7454 146.495 22.3154C144.868 24.1376 139.426 25.8197 131.853 27.0532C133.349 26.7997 134.719 26.0608 135.752 24.9506Z" fill="#00FFED"/>
<path fill-rule="evenodd" clip-rule="evenodd" d="M189.524 23.9135C183.072 30.3614 125.177 41.2669 87.505 38.2391H86.8038C107.028 39.1923 130.618 37.7345 149.44 32.0996C158.023 29.5204 161.137 26.4927 159.959 23.6892C163.549 14.9985 125.709 5.60691 79.0619 6.1676C86.2708 6.02743 94.4054 6.1676 103.41 6.41991C149.244 8.13002 184.475 17.7178 189.524 23.9135Z" fill="#00FFED"/>
<path style="mix-blend-mode:multiply" opacity="0.5" fill-rule="evenodd" clip-rule="evenodd" d="M23.2688 78.2162C23.2688 78.2162 39.9587 99.6626 93.6469 103.728C170.252 109.335 196.956 84.1034 196.956 84.1034C196.956 84.1034 102.847 107.008 23.2688 78.2162Z" fill="url(#paint10_linear)"/>
<path fill-rule="evenodd" clip-rule="evenodd" d="M33.8152 35.5757C48.8358 40.1554 64.4243 42.6089 80.1262 42.8647C103.801 42.8647 139.929 44.0422 139.929 44.0422C139.929 44.0422 111.795 53.2655 86.9424 51.8358C62.0899 50.406 33.8152 35.5757 33.8152 35.5757Z" fill="#9C6455"/>
<path fill-rule="evenodd" clip-rule="evenodd" d="M183.604 37.3982C190.434 32.9409 197.515 28.8785 204.81 25.2312C207.846 24.135 211.171 24.135 214.207 25.2312C214.207 25.2312 207.026 39.2485 183.604 37.3982Z" fill="#9C6455"/>
<path fill-rule="evenodd" clip-rule="evenodd" d="M11.6585 22.5958C11.6585 22.5958 13.7342 21.979 17.1002 24.4741C20.4663 26.9692 32.0791 34.959 32.0791 34.959C32.0791 34.959 18.5869 38.7437 14.5757 34.959C12.8085 33.3891 11.6585 22.5958 11.6585 22.5958Z" fill="#9C6455"/>
<g style="mix-blend-mode:soft-light">
<path fill-rule="evenodd" clip-rule="evenodd" d="M125.569 128.174L127.813 107.008C142.029 106.477 156.181 104.837 170.141 102.102L161.726 125.651C161.726 125.651 137.631 128.23 125.569 128.174Z" fill="#A2BCFF"/>
</g>
<g style="mix-blend-mode:soft-light">
<path fill-rule="evenodd" clip-rule="evenodd" d="M28.6534 113.82L23.8007 93.2149C30.4818 95.9939 37.3301 98.3534 44.3054 100.28L45.0066 119.904C39.3665 118.425 33.8882 116.387 28.6534 113.82V113.82Z" fill="#A2BCFF"/>
</g>
<path fill-rule="evenodd" clip-rule="evenodd" d="M135.749 22.5959V24.9508C134.95 25.7447 133.995 26.365 132.944 26.7731L132.495 24.6985C133.691 24.1857 134.791 23.4748 135.749 22.5959Z" fill="#4C95C7"/>
<path fill-rule="evenodd" clip-rule="evenodd" d="M160.044 22.4277L159.876 25.8199L157.071 28.6233V26.4646C157.893 26.1342 158.606 25.5815 159.131 24.8684C159.656 24.1554 159.973 23.3102 160.044 22.4277V22.4277Z" fill="#4C95C7"/>
<path fill-rule="evenodd" clip-rule="evenodd" d="M42.2599 26.9691V23.6049C42.2599 23.6049 41.9233 25.4832 44.56 27.5017L44.8966 30.0529C44.8966 30.0529 42.2599 28.6792 42.2599 26.9691Z" fill="#4C95C7"/>
</g>
<defs>
<linearGradient id="paint0_linear" x1="32551.9" y1="5847.27" x2="32551.9" y2="5789.82" gradientUnits="userSpaceOnUse">
<stop stop-color="#38327F"/>
<stop offset="1" stop-color="#1513A7"/>
</linearGradient>
<linearGradient id="paint1_linear" x1="24601.8" y1="8042.01" x2="24601.8" y2="7929.63" gradientUnits="userSpaceOnUse">
<stop stop-color="#482ACC"/>
<stop offset="1" stop-color="#2588FF"/>
</linearGradient>
<linearGradient id="paint2_linear" x1="20162.5" y1="4274.69" x2="20162.5" y2="4242.94" gradientUnits="userSpaceOnUse">
<stop stop-color="#38327F"/>
<stop offset="1" stop-color="#1513A7"/>
</linearGradient>
<linearGradient id="paint3_linear" x1="14682.3" y1="10845.3" x2="14682.3" y2="10630.7" gradientUnits="userSpaceOnUse">
<stop stop-color="#482ACC"/>
<stop offset="1" stop-color="#2588FF"/>
</linearGradient>
<linearGradient id="paint4_linear" x1="-43656.7" y1="6574.45" x2="-43656.7" y2="6497.58" gradientUnits="userSpaceOnUse">
<stop stop-color="#38327F"/>
<stop offset="1" stop-color="#1513A7"/>
</linearGradient>
<linearGradient id="paint5_linear" x1="-32996.8" y1="9376.39" x2="-32996.8" y2="9215.17" gradientUnits="userSpaceOnUse">
<stop stop-color="#482ACC"/>
<stop offset="1" stop-color="#2588FF"/>
</linearGradient>
<linearGradient id="paint6_linear" x1="9616.75" y1="7475.39" x2="9616.75" y2="7376.18" gradientUnits="userSpaceOnUse">
<stop stop-color="#482ACC"/>
<stop offset="1" stop-color="#2588FF"/>
</linearGradient>
<linearGradient id="paint7_linear" x1="16022.2" y1="2288.79" x2="16022.2" y2="2280.69" gradientUnits="userSpaceOnUse">
<stop stop-color="#38327F"/>
<stop offset="1" stop-color="#1513A7"/>
</linearGradient>
<linearGradient id="paint8_linear" x1="113142" y1="23920.3" x2="113142" y2="23736.9" gradientUnits="userSpaceOnUse">
<stop stop-color="#38327F"/>
<stop offset="1" stop-color="#1513A7"/>
</linearGradient>
<linearGradient id="paint9_linear" x1="113.199" y1="95.5138" x2="113.199" y2="21.11" gradientUnits="userSpaceOnUse">
<stop stop-color="#33140B"/>
<stop offset="1" stop-color="#877674"/>
</linearGradient>
<linearGradient id="paint10_linear" x1="23.2688" y1="91.3364" x2="196.956" y2="91.3364" gradientUnits="userSpaceOnUse">
<stop stop-color="#C77CBD"/>
<stop offset="1" stop-color="#974577"/>
</linearGradient>
<clipPath id="clip0">
<rect width="206.955" height="128.202" fill="white" transform="translate(10)"/>
</clipPath>
</defs>
</svg>
