<svg width="254" height="148" viewBox="0 0 254 148" fill="none" xmlns="http://www.w3.org/2000/svg">
<path style="mix-blend-mode:multiply" opacity="0.5" fill-rule="evenodd" clip-rule="evenodd" d="M14.5 117C14.5 117 16.7664 137.127 102.462 144.998C188.157 152.87 252.967 143.586 253.948 136.319C254.928 129.053 242.574 121.282 167.762 106.648C86.9998 85.5001 14.5 117 14.5 117Z" fill="url(#paint0_linear)"/>
<g clip-path="url(#clip0)">
<path fill-rule="evenodd" clip-rule="evenodd" d="M14.9483 121.111C14.9483 121.111 4.56421 113.855 1.53168 90.5272H225.878C225.878 90.5272 226.123 104.304 204.619 127.265C204.619 127.265 177.051 141.99 106.782 139.725C34.9814 137.459 14.9483 121.111 14.9483 121.111Z" fill="#3432CB"/>
<path fill-rule="evenodd" clip-rule="evenodd" d="M1.53554 90.5271C-1.00688 82.4143 41.7855 67.505 109.971 67.505C175.002 67.505 223.094 82.8122 225.881 90.5271C228.669 98.2419 183.794 116.856 109.971 116.856C36.1493 116.856 4.47618 99.9564 1.53554 90.5271Z" fill="#4077F7"/>
<path fill-rule="evenodd" clip-rule="evenodd" d="M14.4907 85.4145C14.4907 85.4145 -4.6234 49.5343 1.04345 23.0528H225.389C225.389 23.0528 225.389 66.7397 204.162 91.6292C204.162 91.6292 176.593 106.324 106.324 104.059C34.4932 101.732 14.4907 85.4145 14.4907 85.4145Z" fill="url(#paint1_linear)"/>
<path fill-rule="evenodd" clip-rule="evenodd" d="M1.04354 23.0527C-1.46825 14.9399 41.2935 0 109.51 0C174.602 0 222.633 15.3072 225.389 23.0527C228.146 30.7982 183.148 49.3505 109.51 49.3505C35.8717 49.3505 3.98418 32.4513 1.04354 23.0527Z" fill="#B4958D"/>
<path fill-rule="evenodd" clip-rule="evenodd" d="M196.505 24.6751C196.533 24.9471 196.491 25.2216 196.384 25.4732C196.277 25.7247 196.108 25.9451 195.893 26.114C188.847 33.1553 125.624 45.0643 84.4855 41.758H83.7197C69.1975 40.8775 54.8163 38.4033 40.8355 34.3799C31.646 31.3184 26.8675 28.0733 25.5197 25.1955C25.2083 24.5816 25.0908 23.8877 25.1827 23.2056C26.0098 17.3888 97.2283 11.3884 132.393 16.8378C147.035 19.1339 151.446 21.8892 149.118 24.4914C147.342 26.4813 141.399 28.3182 133.129 29.6652C125.762 30.7789 118.336 31.4536 110.89 31.6858C103.63 31.9307 97.4121 31.9001 92.1741 31.6858C84.3409 31.5813 76.5475 30.5538 68.9553 28.6244C67.7913 28.2876 67.2705 28.0733 67.2705 28.0733C67.2705 28.0733 72.723 19.8992 81.4836 22.6239C90.2443 25.3486 92.4497 29.4816 92.4497 29.4816C92.4497 29.4816 128.319 30.7061 136.1 25.8384C136.605 25.5815 137.029 25.1894 137.325 24.7057C141.093 18.5828 35.4749 15.5214 35.1993 26.4507C35.1934 26.9722 35.3427 27.4836 35.6281 27.9202C41.2949 38.1148 108.439 45.5235 152.028 32.4818C158.89 30.4306 162.535 28.1957 163.515 25.869C167.681 16.3786 126.359 6.12271 75.4186 6.735H74.7447C54.7298 6.92487 34.7714 8.89193 15.1049 12.613L25.3359 9.36785C25.3359 9.36785 49.1979 2.47959 101.915 4.46953C154.632 6.45947 194.851 18.0317 196.505 24.6751Z" fill="#FF9C55"/>
<path fill-rule="evenodd" clip-rule="evenodd" d="M92.1743 31.6245C84.3412 31.52 76.5478 30.4925 68.9556 28.5631C70.5124 26.8754 72.5125 25.6591 74.7277 25.0528C76.9429 24.4465 79.284 24.4748 81.4839 25.1342C85.6669 26.058 89.426 28.3402 92.1743 31.6245V31.6245Z" fill="#FF3D00"/>
<path fill-rule="evenodd" clip-rule="evenodd" d="M137.324 27.2467C137.631 26.7262 137.324 26.2364 136.099 25.8078C136.605 25.5509 137.029 25.1587 137.324 24.6751C141.092 18.5522 35.4743 15.4907 35.1987 26.4201C35.1928 26.9416 35.3421 27.453 35.6275 27.8896C35.3604 28.1837 35.2082 28.564 35.1987 28.9611C35.1987 30.8592 37.2203 32.6654 40.9268 34.3186C31.7373 31.2572 26.9588 28.012 25.611 25.1343C30.9102 19.5012 98.5142 14.0518 132.362 19.3175C142.195 20.8483 147.402 22.6545 149.056 24.3689C147.28 26.3589 141.337 28.1957 133.067 29.5428C134.7 29.266 136.196 28.459 137.324 27.2467Z" fill="#FF3D00"/>
<path fill-rule="evenodd" clip-rule="evenodd" d="M196.045 26.1141C188.999 33.1554 125.776 45.0645 84.6375 41.7581H83.8717C105.957 42.799 131.718 41.2071 152.272 35.0535C161.645 32.237 165.045 28.9306 163.759 25.8692C167.68 16.3787 126.358 6.12286 75.4174 6.73515C83.2897 6.58208 92.1729 6.73515 102.006 7.01068C152.058 8.87817 190.531 19.3483 196.045 26.1141Z" fill="#FF3D00"/>
<path style="mix-blend-mode:multiply" opacity="0.5" fill-rule="evenodd" clip-rule="evenodd" d="M14.4899 85.4142C14.4899 85.4142 32.7157 108.834 91.3446 113.273C174.999 119.396 204.161 91.8432 204.161 91.8432C204.161 91.8432 101.392 116.855 14.4899 85.4142Z" fill="url(#paint2_linear)"/>
<path fill-rule="evenodd" clip-rule="evenodd" d="M26.0068 38.8496C42.4097 43.8507 59.4328 46.53 76.5796 46.8094C102.433 46.8094 141.886 48.0952 141.886 48.0952C141.886 48.0952 111.163 58.1673 84.0231 56.606C56.8835 55.0447 26.0068 38.8496 26.0068 38.8496Z" fill="#9C6455"/>
<path fill-rule="evenodd" clip-rule="evenodd" d="M189.58 40.8398C197.039 35.9723 204.771 31.5361 212.738 27.5532C216.054 26.3561 219.684 26.3561 222.999 27.5532C222.999 27.5532 215.158 42.8604 189.58 40.8398Z" fill="#9C6455"/>
<path fill-rule="evenodd" clip-rule="evenodd" d="M1.8111 24.6752C1.8111 24.6752 4.07784 24.0017 7.75363 26.7264C11.4294 29.4511 24.1109 38.1762 24.1109 38.1762C24.1109 38.1762 9.3771 42.3092 4.99678 38.1762C3.06699 36.4618 1.8111 24.6752 1.8111 24.6752Z" fill="#9C6455"/>
<g style="mix-blend-mode:soft-light">
<path fill-rule="evenodd" clip-rule="evenodd" d="M126.205 139.969L128.655 116.855C144.179 116.276 159.634 114.485 174.878 111.498L165.689 137.214C165.689 137.214 139.376 140.031 126.205 139.969Z" fill="#A2BCFF"/>
</g>
<g style="mix-blend-mode:soft-light">
<path fill-rule="evenodd" clip-rule="evenodd" d="M20.3699 124.295L15.0707 101.793C22.3667 104.828 29.8451 107.405 37.4624 109.508L38.2282 130.938C32.069 129.323 26.0866 127.098 20.3699 124.295V124.295Z" fill="#A2BCFF"/>
</g>
<path fill-rule="evenodd" clip-rule="evenodd" d="M137.321 24.6754V27.247C136.448 28.1139 135.405 28.7914 134.258 29.237L133.768 26.9715C135.073 26.4115 136.275 25.6352 137.321 24.6754Z" fill="#FF9C55"/>
<path fill-rule="evenodd" clip-rule="evenodd" d="M163.852 24.4916L163.668 28.1959L160.605 31.2574V28.9001C161.503 28.5392 162.282 27.9356 162.855 27.1569C163.429 26.3783 163.774 25.4553 163.852 24.4916V24.4916Z" fill="#FF9C55"/>
<path fill-rule="evenodd" clip-rule="evenodd" d="M35.2286 29.451V25.7772C35.2286 25.7772 34.8611 27.8284 37.7404 30.0326L38.108 32.8186C38.108 32.8186 35.2286 31.3184 35.2286 29.451Z" fill="#FF9C55"/>
</g>
<defs>
<linearGradient id="paint0_linear" x1="123543" y1="26121.5" x2="123543" y2="25921.3" gradientUnits="userSpaceOnUse">
<stop stop-color="#38327F"/>
<stop offset="1" stop-color="#1513A7"/>
</linearGradient>
<linearGradient id="paint1_linear" x1="112.696" y1="104.304" x2="112.696" y2="23.0528" gradientUnits="userSpaceOnUse">
<stop stop-color="#33140B"/>
<stop offset="1" stop-color="#877674"/>
</linearGradient>
<linearGradient id="paint2_linear" x1="14.4899" y1="99.7418" x2="204.161" y2="99.7418" gradientUnits="userSpaceOnUse">
<stop stop-color="#C77CBD"/>
<stop offset="1" stop-color="#974577"/>
</linearGradient>
<clipPath id="clip0">
<rect width="226" height="140" fill="white"/>
</clipPath>
</defs>
</svg>
